<?xml version="1.0" encoding="utf-8"?>
<!-- Generator: Adobe Illustrator 18.0.0, SVG Export Plug-In . SVG Version: 6.00 Build 0)  -->
<!DOCTYPE svg PUBLIC "-//W3C//DTD SVG 1.1 Tiny//EN" "http://www.w3.org/Graphics/SVG/1.1/DTD/svg11-tiny.dtd">
<svg version="1.1" baseProfile="tiny" id="Livello_2"
	 xmlns="http://www.w3.org/2000/svg" xmlns:xlink="http://www.w3.org/1999/xlink" x="0px" y="0px" viewBox="0 0 541.018 411.79"
	 xml:space="preserve">
<g>
	<polygon fill-rule="evenodd" fill="#FFFFFF" points="109.315,67.64 114.16,84.213 131.407,83.69 117.142,93.411 122.974,109.666 
		109.315,99.097 95.664,109.666 101.494,93.411 87.227,83.69 104.483,84.213 	"/>
	<polygon fill-rule="evenodd" fill="#FFFFFF" points="179.356,21.897 184.193,38.473 201.449,37.947 187.183,47.668 193.009,63.919 
		179.356,53.357 165.703,63.919 171.529,47.668 157.264,37.947 174.52,38.473 	"/>
	<polygon fill-rule="evenodd" fill="#FFFFFF" points="270.161,0 274.988,16.573 292.251,16.051 277.984,25.771 283.81,42.022 
		270.161,31.456 256.508,42.022 262.333,25.771 248.068,16.051 265.326,16.573 	"/>
	<polygon fill-rule="evenodd" fill="#FFFFFF" points="361.613,21.521 366.448,38.09 383.708,37.568 369.436,47.289 375.265,63.536 
		361.613,52.974 347.96,63.536 353.787,47.289 339.522,37.568 356.776,38.09 	"/>
	<polygon fill-rule="evenodd" fill="#FFFFFF" points="432.71,68.07 437.543,84.642 454.799,84.12 440.534,93.841 446.366,110.089 
		432.71,99.526 419.056,110.089 424.888,93.841 410.624,84.12 427.873,84.642 	"/>
</g>
<g>
	<path fill-rule="evenodd" fill="#FFFFFF" d="M275.56,111.187c0,4.004-0.31,5.696-2.078,6.781
		c-2.696,1.538-6.475,2.615-12.635,2.615c-5.009,0-9.707-1.771-13.558-5.467c-4.775-4.548-7.319-12.479-7.319-21.571
		c0-6.934,2.617-13.328,6.78-17.717c4.622-4.93,9.397-6.247,14.712-6.247c6.934,0,11.71,3.471,14.026,6.326
		c2.692,3.31,4.001,6.927,4.621,9.088c0.077,0.386,0.302,0.615,0.612,0.615l1.392-0.154c0.306,0,0.383-0.308,0.383-0.69
		l-0.229-14.719c0-0.536-0.154-0.923-0.696-0.923c-0.46,0-0.769,0.387-1.075,0.694l-1.158,1.392
		c-0.461,0.612-0.925,0.766-1.772,0.068c-2.617-2.004-8.553-4.465-15.176-4.465c-9.245,0-16.178,2.616-21.65,7.321
		c-5.696,5.084-8.704,12.555-8.704,19.564c0,9.324,2.389,15.871,7.086,21.191c5.317,6.233,14.714,8.791,21.57,8.791
		c8.63,0,14.797-1.785,21.03-4.945c0.773-0.307,1.236-0.618,1.236-1.23c0-0.619-0.307-1.385-0.307-2.462v-10.172
		c0-2.386,1-2.93,2.388-2.93h3.004c0.464,0,0.54-0.305,0.54-0.616v-1.847c0-0.311-0.077-0.54-0.618-0.54
		c-1.082,0-3.545,0.229-9.089,0.229c-5.24,0-8.707-0.229-9.785-0.229c-0.387,0-0.462,0.154-0.462,0.619v1.925
		c0,0.307,0.152,0.458,0.54,0.458h3.234c2.311,0,3.157,0.772,3.157,3.549V111.187L275.56,111.187z"/>
	<path fill-rule="evenodd" fill="#FFFFFF" d="M298.671,111.187c0,4.004-0.306,5.696-2.077,6.781
		c-2.696,1.538-6.473,2.615-12.635,2.615c-5.007,0-9.705-1.771-13.56-5.467c-4.775-4.548-7.32-12.479-7.32-21.571
		c0-6.934,2.623-13.328,6.78-17.717c4.625-4.93,9.402-6.247,14.716-6.247c6.934,0,11.714,3.471,14.023,6.326
		c2.698,3.31,4.002,6.927,4.619,9.088c0.079,0.386,0.31,0.615,0.619,0.615l1.385-0.154c0.31,0,0.387-0.308,0.387-0.69l-0.229-14.719
		c0-0.536-0.158-0.923-0.698-0.923c-0.461,0-0.766,0.387-1.075,0.694l-1.16,1.392c-0.458,0.612-0.921,0.766-1.769,0.068
		c-2.621-2.004-8.549-4.465-15.179-4.465c-9.238,0-16.177,2.616-21.646,7.321c-5.702,5.084-8.707,12.555-8.707,19.564
		c0,9.324,2.391,15.871,7.09,21.191c5.316,6.233,14.714,8.791,21.569,8.791c8.63,0,14.794-1.785,21.03-4.945
		c0.774-0.307,1.234-0.618,1.234-1.23c0-0.619-0.309-1.385-0.309-2.462v-10.172c0-2.386,1.001-2.93,2.388-2.93h3.005
		c0.463,0,0.54-0.305,0.54-0.616v-1.847c0-0.311-0.077-0.54-0.617-0.54c-1.077,0-3.544,0.229-9.088,0.229
		c-5.242,0-8.707-0.229-9.785-0.229c-0.385,0-0.465,0.154-0.465,0.619v1.925c0,0.307,0.157,0.458,0.544,0.458h3.234
		c2.309,0,3.155,0.772,3.155,3.549V111.187L298.671,111.187z"/>
</g>
<g>
	<path fill="#FFFFFF" d="M410.795,185.757l-1.892-2.788l14.272-9.682c0.329-0.222,0.719-0.326,1.106-0.286l20.619,1.975
		l14.73-14.741c0.526-0.526,1.327-0.64,1.982-0.293l14.417,7.689l0.258-0.258l1.016,1.02c0.587,0.59,0.666,1.524,0.165,2.194
		c-0.494,0.669-1.41,0.869-2.14,0.479l-14.199-7.567l-14.408,14.416c-0.354,0.354-0.852,0.536-1.349,0.486l-20.809-1.986
		L410.795,185.757L410.795,185.757z"/>
	<path fill="#FFFFFF" d="M472.96,189.327l-2.12-2.615l9.426-7.642l6.276-3.94l8.365-4.343l5.84-6.093l2.426,2.333l-6.133,6.386
		c-0.121,0.126-0.264,0.229-0.422,0.312l-8.408,4.326l-5.99,3.757L472.96,189.327L472.96,189.327z"/>
	<path fill="#FFFFFF" d="M476.186,169.949l-2.419-2.339l7.478-7.71l0.215-2.956c0.036-0.565,0.358-1.077,0.859-1.356
		c0.494-0.268,1.095-0.283,1.603-0.01l3.227,1.71l1.674-1.671c0.315-0.314,0.745-0.493,1.188-0.493h3.406l5.302-2.747l1.61-7.876
		c0.186-0.876,1.002-1.46,1.904-1.331l5.088,0.769c0.243,0.032,0.472,0.118,0.673,0.25l6.626,4.333l9.618,7.839l9.954,3.979
		l-1.245,3.124l-10.197-4.075c-0.157-0.061-0.307-0.146-0.436-0.258l-9.675-7.893l-6.175-4.033l-3.156-0.469l-1.459,7.099
		c-0.101,0.497-0.423,0.923-0.867,1.155l-6.375,3.31c-0.243,0.121-0.508,0.19-0.773,0.19h-3.128l-2.053,2.053
		c-0.529,0.522-1.331,0.644-1.982,0.3l-2.04-1.084l-0.071,0.984c-0.029,0.397-0.194,0.769-0.473,1.055L476.186,169.949
		L476.186,169.949z"/>
	<path fill="#FFFFFF" d="M540.524,184.977c-13.06-1.911-30.641-8.358-40.465-18.444l2.411-2.347
		c9.274,9.52,26.04,15.635,38.549,17.467L540.524,184.977L540.524,184.977z"/>
	<path fill="#FFFFFF" d="M427.493,247.576l-1.398-1.928l26.305-19.128c0.458-0.329,1.084-0.297,1.503,0.075
		c0.415,0.379,0.519,0.991,0.24,1.484c-0.104,0.072,0.841,0.698,6.01-0.934c4.201-1.335,10.888-4.121,17.967-7.077
		c8.308-3.467,16.902-7.052,22.734-8.82c15.563-4.712,25.217-7.385,28.702-7.925l0.372,2.354c-3.378,0.526-12.924,3.17-28.38,7.854
		c-5.717,1.728-14.254,5.295-22.512,8.737c-7.127,2.977-13.855,5.786-18.163,7.149c-4.905,1.546-7.585,1.621-8.705,0.236
		c0,0,0-0.007-0.007-0.007L427.493,247.576L427.493,247.576z"/>
	<path fill="#FFFFFF" d="M0.504,239.941L0,237.611l7.911-1.706l9.796-11.553c0.199-0.24,0.479-0.4,0.791-0.437l3.016-0.347
		c0.122-0.025,0.261-0.01,0.39,0.018l32.384,7.023l-0.505,2.337l-32.19-6.984l-2.337,0.268l-1.763,2.176l-8.031,9.359
		c-0.17,0.193-0.399,0.333-0.655,0.383L0.504,239.941L0.504,239.941z"/>
	<path fill="#FFFFFF" d="M22.213,226.337l-1.123-3.17c8.654-3.073,19.443-12.004,26.65-19.346c0.36-0.365,0.868-0.529,1.367-0.49
		c8.229,0.823,16.809,3.685,26.21,8.734l3.269-1.871c0.374-0.211,0.823-0.279,1.236-0.172l12.562,3.091l7.904-3.281
		c0.349-0.147,0.743-0.172,1.107-0.068c8.177,2.337,17.715,4.559,32.036,5.02c5.512-1.059,10.974-5.109,17.169-12.74l9.042-11.346
		c0.206-0.257,0.486-0.447,0.798-0.551c2.259-0.734,4.811-2.526,7.275-4.264c2.267-1.593,4.406-3.092,6.493-3.958
		c5.333-1.957,10.392-6.101,15.102-12.337c0.317-0.422,0.816-0.669,1.344-0.669h3.83c0.165,0,0.333,0.025,0.489,0.075l2.357,0.715
		c1.033-0.379,1.973-0.573,2.961-0.784c2.003-0.419,4.277-0.898,8.402-3.231c0.36-0.204,0.79-0.268,1.188-0.175
		c5.049,1.106,11.054,2.637,17.52,5.671l7.333-3.045c0.08-0.032,0.166-0.061,0.254-0.086l12.223-2.894
		c0.233-0.312,0.522-0.673,0.889-1.117c0.386-0.476,0.785-0.93,0.939-1.217c0.117-0.211,0.297-0.44,0.487-0.582l0.612-0.458
		c6.73-5.088,11.596-8.762,16.51-18.108c0.388-0.729,1.254-1.08,2.039-0.801c4.578,1.592,7.939,3.306,12.6,7.771l9.766,11.02
		c3.985,0.766,9.086,2.072,14.175,5.202c9.759,4.648,20.764,10.619,27.806,19.199l18.04-3.8l21.138-14.089
		c0.469-0.315,1.059-0.372,1.579-0.154l36.704,15.292c0.103,0.046,0.2,0.096,0.3,0.164l28.548,19.367l-1.892,2.787l-28.409-19.273
		l-35.714-14.884l-20.659,13.775c-0.178,0.114-0.376,0.201-0.584,0.243l-19.372,4.083c-0.624,0.132-1.28-0.107-1.676-0.618
		c-6.569-8.473-17.544-14.426-27.413-19.135c-4.992-3.063-9.743-4.221-13.75-4.958c-0.372-0.064-0.707-0.258-0.956-0.537
		l-10.055-11.352c-3.689-3.528-6.407-5.095-9.936-6.437c-5.023,9.06-9.994,12.813-16.762,17.933l-0.348,0.257
		c-0.251,0.383-0.615,0.84-1.115,1.445c-0.315,0.379-0.833,1.016-0.948,1.22c-0.227,0.426-0.649,0.773-1.113,0.883l-12.745,3.02
		l-7.898,3.282c-0.442,0.182-0.941,0.168-1.376-0.04c-6.15-2.967-11.934-4.512-16.841-5.61c-4.235,2.326-6.755,2.852-8.8,3.284
		c-1.05,0.219-1.954,0.408-2.924,0.82c-0.363,0.154-0.766,0.172-1.143,0.057l-2.68-0.819h-2.751
		c-4.966,6.397-10.363,10.694-16.05,12.78c-1.68,0.698-3.671,2.1-5.778,3.581c-2.512,1.764-5.104,3.585-7.682,4.533l-8.747,10.98
		c-6.807,8.376-12.956,12.82-19.364,13.979c-0.118,0.018-0.236,0.029-0.355,0.025c-14.458-0.458-24.175-2.651-32.469-4.991
		l-7.871,3.266c-0.33,0.139-0.701,0.169-1.05,0.083l-12.442-3.07l-3.501,2.011c-0.505,0.286-1.129,0.29-1.644,0.011
		c-9.013-4.941-17.19-7.793-24.963-8.702C45.31,211.024,33.238,222.423,22.213,226.337L22.213,226.337z"/>
	<path fill="#FFFFFF" d="M246.591,228.491l-1.772-1.599c7.814-8.645,14.862-15.002,25.142-22.709l16.892-10.78l11.432-4.544
		l0.875,2.222l-11.227,4.436l-16.616,10.63C261.246,213.697,254.291,219.98,246.591,228.491L246.591,228.491z"/>
	<path fill="#FFFFFF" d="M339.073,202.58L309.6,184.014l-10.206,6.941l-1.346-1.975l10.854-7.374
		c0.395-0.276,0.903-0.283,1.309-0.029l30.134,18.988L339.073,202.58L339.073,202.58z"/>
	<path fill="#FFFFFF" d="M89.339,246.585l-1.918-1.424l9.301-12.498c0.215-0.286,0.544-0.461,0.902-0.476l5.21-0.243
		c2.713,0.135,4.114,1.481,5.352,2.673c0.501,0.476,0.972,0.934,1.5,1.281l15.34,3.632c6.113-2.133,8.514-5.836,10.058-9.195
		c0.238-0.508,0.794-0.794,1.352-0.666c1.744,0.401,3.267,1.191,4.739,1.965c1.517,0.791,2.95,1.542,4.553,1.839
		c8.113,1.528,17.206,4.486,28.466,9.277c-0.339-2.844,1.136-5.038,2.283-6.737c0.615-0.919,1.199-1.785,1.315-2.479
		c0.096-0.548,0.552-0.956,1.104-0.988l13.354-0.844l-1.27-6.529c-0.086-0.44,0.086-0.898,0.44-1.17
		c1.844-1.435,4.541-0.372,6.514,0.408c0.294,0.114,0.648,0.258,0.945,0.361c5.619-7.768,11.348-14.569,17.494-20.777
		c0.357-0.354,0.895-0.444,1.353-0.24c10.175,4.741,20.186,13.317,29.492,21.876l-1.619,1.757
		c-8.927-8.214-18.499-16.436-28.122-21.106c-6.002,6.126-11.612,12.852-17.128,20.527c-0.229,0.329-0.615,0.529-0.996,0.501
		c-0.617-0.015-1.357-0.312-2.295-0.677c-1.013-0.4-2.585-1.02-3.544-0.944l1.339,6.891c0.064,0.34-0.018,0.687-0.225,0.963
		c-0.211,0.268-0.528,0.436-0.872,0.458l-13.875,0.876c-0.327,0.834-0.864,1.635-1.422,2.465c-1.402,2.09-2.734,4.065-1.318,6.998
		c0.218,0.444,0.13,0.984-0.213,1.346c-0.345,0.365-0.887,0.462-1.338,0.269c-12.186-5.321-21.814-8.537-30.303-10.133
		c-1.948-0.368-3.609-1.23-5.213-2.072c-1.102-0.572-2.158-1.123-3.261-1.495c-1.739,3.464-4.693,7.435-11.349,9.646
		c-0.209,0.068-0.44,0.078-0.651,0.036l-15.872-3.757c-0.121-0.029-0.242-0.078-0.351-0.15c-0.808-0.491-1.442-1.102-2.052-1.693
		c-1.118-1.07-1.999-1.918-3.709-2.011l-4.524,0.225L89.339,246.585L89.339,246.585z"/>
</g>
<path fill="#FFFFFF" d="M84.715,407.461c0.072,0.072,0.096,0.145,0.048,0.24c-1.439,2.063-3.742,4.029-7.147,4.029
	c-3.07,0-4.797-0.91-6.284-2.254c-1.775-1.583-2.59-4.365-2.59-6.475c0-2.351,0.767-4.605,2.446-6.428
	c1.295-1.391,3.358-2.542,6.236-2.542c2.207,0,3.981,0.672,4.845,1.151c0.335,0.191,0.432,0.191,0.48,0l0.191-0.624
	c0.048-0.144,0.096-0.144,0.384-0.144c0.287,0,0.336,0.048,0.336,0.384c0,0.432,0.479,4.269,0.576,4.988
	c0.023,0.145,0,0.217-0.096,0.24l-0.455,0.145c-0.12,0.047-0.192-0.049-0.264-0.24c-0.288-0.863-0.864-2.063-1.871-3.118
	c-1.055-1.008-2.302-1.775-4.173-1.775c-3.838,0-5.421,3.454-5.421,6.908c0,1.487,0.432,4.318,2.206,6.237
	c1.583,1.678,2.974,1.871,4.125,1.871c2.639,0,4.725-1.32,5.733-2.783c0.119-0.168,0.216-0.24,0.287-0.168L84.715,407.461z"/>
<path fill="#FFFFFF" d="M91.937,405.861c0,1.262,0.042,3.617,0.084,3.932c0.063,0.42,0.211,0.799,0.547,0.799h1.051
	c0.127,0,0.169,0.063,0.169,0.147v0.504c0,0.148-0.064,0.189-0.232,0.189c-0.273,0-0.694-0.063-2.881-0.063
	c-2.061,0-2.565,0.063-2.775,0.063c-0.126,0-0.168-0.063-0.168-0.189v-0.483c0-0.106,0.042-0.169,0.126-0.169h0.715
	c0.462,0,0.799-0.126,0.799-0.694c0.042-2.103,0.042-4.079,0.042-6.056v-5.53c0-0.715-0.294-1.052-0.673-1.052H87.92
	c-0.105,0-0.147-0.042-0.147-0.126v-0.568c0-0.104,0.042-0.147,0.147-0.147c0.148,0,0.821,0.063,2.881,0.063
	c1.177,0,3.112-0.063,3.743-0.063c1.682,0,2.986,0.568,3.827,1.325c0.757,0.672,1.135,1.555,1.135,2.355
	c0,2.65-1.598,3.743-3.911,4.122v0.083c0.588,0.211,0.967,0.589,1.261,0.967c0.253,0.336,1.557,2.313,1.725,2.565
	c0.126,0.211,1.471,2.103,1.787,2.397c0.399,0.357,0.989,0.399,1.493,0.399c0.126,0,0.168,0.063,0.168,0.147v0.441
	c0,0.147-0.042,0.211-0.168,0.211c-0.169,0-0.715-0.063-2.061-0.063c-0.588,0-1.387,0.042-1.85,0.063
	c-0.252-0.189-0.652-0.757-0.925-1.198c-0.379-0.589-1.199-2.102-1.388-2.439c-0.21-0.379-0.799-1.345-1.135-1.809
	c-0.526-0.737-1.01-1.304-1.893-1.304c-0.084,0-0.442,0.021-0.673,0.042V405.861z M91.979,403.969
	c0.294,0.042,0.547,0.083,0.799,0.083c3.28,0,3.953-2.649,3.953-3.616c0-0.967-0.399-1.871-0.925-2.355
	c-0.757-0.673-1.725-0.905-2.776-0.905c-0.336,0-0.589,0.022-0.757,0.127c-0.167,0.105-0.252,0.357-0.252,0.609L91.979,403.969z"/>
<path fill="#FFFFFF" d="M106.97,405.587c-0.169,0.484-1.199,3.491-1.303,4.059c-0.042,0.168-0.042,0.337-0.042,0.441
	c0,0.273,0.336,0.505,0.757,0.505h0.883c0.168,0,0.21,0.042,0.21,0.105v0.526c0,0.126-0.042,0.211-0.168,0.211
	c-0.294,0-1.178-0.063-2.649-0.063c-1.556,0-2.019,0.063-2.313,0.063c-0.127,0-0.127-0.126-0.127-0.274v-0.398
	c0-0.127,0.043-0.169,0.127-0.169h0.631c0.589,0,0.968-0.294,1.346-0.946c0.21-0.379,1.724-4.163,2.355-5.93l2.061-5.509
	c0.042-0.21,0.168-0.588,0.042-0.714c-0.063-0.064-0.126-0.189-0.126-0.253c0-0.084,0.041-0.168,0.21-0.21
	c0.673-0.169,1.83-0.799,2.082-1.052c0.126-0.126,0.21-0.211,0.315-0.211c0.127,0,0.211,0.253,0.253,0.379
	c0.379,1.303,2.018,6.014,2.397,7.359c0.505,1.64,1.85,5.551,2.145,6.118c0.379,0.715,0.925,0.967,1.346,0.967h0.673
	c0.126,0,0.168,0.042,0.168,0.147v0.441c0,0.126-0.042,0.252-0.21,0.252c-0.378,0-0.799-0.063-3.112-0.063
	c-1.766,0-2.481,0.063-2.944,0.063c-0.168,0-0.21-0.126-0.21-0.252v-0.42c0-0.127,0.042-0.169,0.168-0.169h0.547
	c0.589,0,0.757-0.211,0.631-0.778c-0.168-0.757-1.01-3.448-1.262-4.227H106.97z M111.638,404.746
	c-0.21-0.609-1.64-5.404-1.766-5.824c-0.085-0.252-0.126-0.379-0.211-0.379c-0.126,0-0.21,0.085-0.273,0.274
	c-0.085,0.274-1.977,5.446-2.124,5.929H111.638z"/>
<path fill="#FFFFFF" d="M122.823,401.866c0,3.576,0.169,6.519,0.211,7.171c0.043,1.051,0.295,1.556,1.051,1.556h0.547
	c0.169,0,0.169,0.085,0.169,0.189v0.484c0,0.126,0,0.168-0.169,0.168c-0.21,0-1.471-0.063-2.271-0.063
	c-0.547,0-1.977,0.063-2.187,0.063c-0.084,0-0.127-0.042-0.127-0.189v-0.526c0-0.041,0.043-0.126,0.127-0.126h0.715
	c0.547,0,0.841-0.463,0.946-1.746c0.021-0.379,0.147-3.322,0.147-6.686v-2.671c0-1.261-0.715-2.229-1.64-2.229h-0.673
	c-0.085-0.021-0.127-0.063-0.127-0.147v-0.568c0-0.083,0.042-0.126,0.127-0.126c0.105,0,0.273,0.021,0.652,0.043
	c0.378,0.021,0.946,0.021,1.871,0.021c0.358,0,0.673-0.021,0.925-0.042c0.273,0,0.463-0.021,0.589-0.021
	c0.253,0,0.379,0.063,0.505,0.189c0.211,0.211,4.332,5.383,4.752,5.972c0.295,0.336,3.575,4.415,3.911,4.836h0.084v-2.186
	c0-1.85,0-2.902-0.042-3.953c-0.042-0.799-0.126-2.861-0.231-3.217c-0.147-0.504-0.61-0.799-1.115-0.799h-0.673
	c-0.126,0-0.126-0.085-0.126-0.189v-0.483c0-0.126,0-0.169,0.168-0.169c0.252,0,0.925,0.063,2.355,0.063
	c1.261,0,1.766-0.063,2.019-0.063c0.168,0,0.21,0.084,0.21,0.147v0.483c0,0.126-0.042,0.211-0.126,0.211h-0.589
	c-0.421,0-0.631,0.336-0.694,1.115c-0.105,1.429-0.315,4.962-0.315,7.107v5.551c0,0.295,0,0.589-0.252,0.589
	c-0.295,0-0.547-0.168-0.715-0.336c-0.169-0.21-1.303-1.514-2.607-3.07c-1.472-1.809-3.112-3.785-3.364-4.121
	c-0.294-0.295-3.658-4.5-3.911-4.795h-0.127V401.866z"/>
<path fill="#FFFFFF" d="M139.393,406.681c0.084,0,0.126,0.043,0.126,0.168c0.042,0.673,0.211,1.472,0.799,2.397
	c0.631,1.009,1.724,1.514,2.776,1.514c1.135,0,2.734-0.715,2.734-2.461c0-1.934-0.883-2.565-3.112-3.406
	c-0.673-0.252-2.061-0.841-3.07-1.766c-0.715-0.673-1.052-1.724-1.052-3.007c0-1.178,0.463-2.146,1.472-2.945
	c0.841-0.714,1.766-1.009,2.986-1.009c1.388,0,2.23,0.337,2.65,0.505c0.21,0.085,0.337,0.042,0.442-0.063l0.273-0.273
	c0.085-0.084,0.169-0.126,0.294-0.126c0.126,0,0.169,0.126,0.169,0.336c0,0.336,0.336,3.28,0.336,3.491
	c0,0.085-0.042,0.126-0.126,0.147l-0.337,0.105c-0.084,0.021-0.168,0-0.21-0.126c-0.21-0.589-0.547-1.43-1.304-2.229
	c-0.546-0.589-1.219-0.884-2.187-0.884c-1.682,0-2.354,1.346-2.354,2.124c0,0.715,0.083,1.345,0.589,1.893
	c0.546,0.546,1.724,1.051,2.565,1.303c1.22,0.379,2.23,0.799,3.029,1.641c0.673,0.715,1.051,1.598,1.051,3.007
	c0,2.566-1.682,4.668-4.457,4.668c-1.724,0-2.734-0.378-3.575-1.009c-0.252-0.169-0.379-0.253-0.504-0.253
	c-0.127,0-0.211,0.168-0.337,0.378c-0.126,0.211-0.211,0.253-0.378,0.253c-0.168,0-0.252-0.126-0.252-0.337
	c0.042-0.252,0.336-3.658,0.378-3.911c0.021-0.126,0.042-0.168,0.126-0.168L139.393,406.681z"/>
<path fill="#FFFFFF" d="M174.989,402.688c0-0.719,0-6.667-0.048-6.763h-0.096c-0.192,0.336-3.214,7.339-3.502,7.962
	c-0.36,0.768-2.806,6.428-2.925,6.668c-0.097,0.193-0.288,0.528-0.528,0.528c-0.143,0-0.288-0.144-0.383-0.431
	c-0.096-0.144-3.214-7.628-3.357-8.01c-0.432-1.104-2.639-6.476-2.926-6.764c-0.096,0.336-0.12,6.38-0.12,6.667
	c0,0.289-0.023,4.366,0.12,5.924c0.096,1.104,0.384,2.015,1.151,2.015h1.056c0.144,0,0.191,0.096,0.191,0.168v0.599
	c0,0.096-0.048,0.191-0.24,0.191c-0.24,0-0.912-0.072-2.734-0.072c-2.063,0-2.878,0.072-3.118,0.072
	c-0.192,0-0.192-0.048-0.192-0.216v-0.6c0-0.047,0-0.143,0.144-0.143h1.104c0.815,0,1.079-0.864,1.199-1.703
	c0.216-1.679,0.36-7.579,0.36-8.01v-4.101c0-0.865-0.12-1.392-1.175-1.392h-1.056c-0.144,0-0.192-0.095-0.192-0.168v-0.647
	c0-0.048,0.048-0.144,0.192-0.144c0.24,0,0.864,0.072,3.406,0.072c1.151,0,1.823-0.072,2.111-0.072c0.287,0,0.455,0.096,0.575,0.408
	c0.864,2.254,4.221,10.217,4.941,12.184c0.216-0.432,1.919-4.389,2.543-5.804c0.431-1.008,2.59-5.948,2.71-6.428
	c0.072-0.24,0.36-0.288,0.935-0.288c3.501,0.024,4.317-0.072,4.605-0.072c0.096,0,0.144,0.096,0.144,0.216v0.503
	c0,0.145-0.048,0.24-0.191,0.24h-1.056c-0.623,0-0.671,0.432-0.695,0.936c-0.024,0.527-0.024,5.325-0.024,5.948v1.679
	c0,1.439,0.048,4.94,0.048,5.348c0.024,0.911,0.24,1.296,0.671,1.296h1.296c0.144,0,0.144,0.096,0.144,0.168v0.552
	c0,0.144,0,0.239-0.192,0.239c-0.288,0-1.439-0.072-3.549-0.072c-2.351,0-3.262,0.072-3.598,0.072c-0.144,0-0.192-0.095-0.192-0.216
	v-0.551c0-0.145,0.048-0.192,0.192-0.192h1.487c0.432,0,0.624-0.144,0.695-0.84c0.024-0.24,0.072-3.694,0.072-5.612V402.688z"/>
<path fill="#FFFFFF" d="M202.996,401.866c0,3.576,0.168,6.519,0.21,7.171c0.042,1.051,0.294,1.556,1.051,1.556h0.546
	c0.169,0,0.169,0.085,0.169,0.189v0.484c0,0.126,0,0.168-0.169,0.168c-0.21,0-1.472-0.063-2.271-0.063
	c-0.546,0-1.977,0.063-2.187,0.063c-0.084,0-0.126-0.042-0.126-0.189v-0.526c0-0.041,0.042-0.126,0.126-0.126h0.715
	c0.547,0,0.842-0.463,0.946-1.746c0.021-0.379,0.147-3.322,0.147-6.686v-2.671c0-1.261-0.715-2.229-1.64-2.229h-0.673
	c-0.084-0.021-0.126-0.063-0.126-0.147v-0.568c0-0.083,0.042-0.126,0.126-0.126c0.106,0,0.273,0.021,0.652,0.043
	c0.379,0.021,0.946,0.021,1.872,0.021c0.357,0,0.673-0.021,0.925-0.042c0.273,0,0.462-0.021,0.589-0.021
	c0.252,0,0.378,0.063,0.504,0.189c0.211,0.211,4.332,5.383,4.753,5.972c0.295,0.336,3.575,4.415,3.911,4.836h0.084v-2.186
	c0-1.85,0-2.902-0.043-3.953c-0.041-0.799-0.126-2.861-0.231-3.217c-0.147-0.504-0.61-0.799-1.115-0.799h-0.673
	c-0.126,0-0.126-0.085-0.126-0.189v-0.483c0-0.126,0-0.169,0.169-0.169c0.252,0,0.925,0.063,2.355,0.063
	c1.262,0,1.766-0.063,2.019-0.063c0.168,0,0.21,0.084,0.21,0.147v0.483c0,0.126-0.042,0.211-0.126,0.211h-0.589
	c-0.42,0-0.63,0.336-0.693,1.115c-0.105,1.429-0.315,4.962-0.315,7.107v5.551c0,0.295,0,0.589-0.252,0.589
	c-0.294,0-0.547-0.168-0.715-0.336c-0.169-0.21-1.304-1.514-2.608-3.07c-1.472-1.809-3.112-3.785-3.364-4.121
	c-0.294-0.295-3.658-4.5-3.911-4.795h-0.126V401.866z"/>
<path fill="#FFFFFF" d="M223.56,397.366h-0.589c-0.673,0-2.187,0-3.07,0.294c-0.673,0.294-1.472,1.682-1.872,2.397
	c-0.063,0.105-0.126,0.19-0.231,0.147l-0.421-0.147c-0.085-0.042-0.105-0.105-0.085-0.211l1.01-3.869
	c0.042-0.294,0.168-0.379,0.253-0.379c0.126,0,0.21,0.084,0.336,0.211c0.421,0.42,0.842,0.526,1.43,0.546
	c1.135,0.043,2.019,0.127,4.079,0.127h1.135c2.313,0,3.196-0.084,4.163-0.127c0.399-0.02,1.199-0.315,1.514-0.546
	c0.169-0.126,0.253-0.211,0.379-0.211c0.126,0,0.168,0.084,0.21,0.337c0.042,0.379,0.463,2.986,0.631,3.995
	c0.021,0.127-0.021,0.169-0.084,0.19l-0.42,0.146c-0.084,0.021-0.126-0.042-0.19-0.168c-0.294-0.589-1.072-1.934-1.661-2.355
	c-0.589-0.337-2.481-0.379-3.238-0.379h-0.589v11.208c0,1.598,0.21,2.018,0.715,2.018h1.219c0.085,0,0.126,0.085,0.126,0.189v0.441
	c0,0.126-0.042,0.211-0.21,0.211c-0.21,0-0.883-0.063-3.154-0.063c-2.145,0-3.028,0.063-3.322,0.063
	c-0.126,0-0.168-0.042-0.168-0.189v-0.483c0-0.127,0.063-0.169,0.147-0.169h1.199c0.421,0,0.673-0.253,0.694-0.568
	c0.063-0.547,0.063-6.981,0.063-7.402V397.366z"/>
<path fill="#FFFFFF" d="M235.797,405.587c-0.169,0.484-1.199,3.491-1.303,4.059c-0.043,0.168-0.043,0.337-0.043,0.441
	c0,0.273,0.337,0.505,0.758,0.505h0.883c0.168,0,0.21,0.042,0.21,0.105v0.526c0,0.126-0.042,0.211-0.168,0.211
	c-0.295,0-1.178-0.063-2.65-0.063c-1.556,0-2.019,0.063-2.313,0.063c-0.126,0-0.126-0.126-0.126-0.274v-0.398
	c0-0.127,0.041-0.169,0.126-0.169h0.631c0.589,0,0.967-0.294,1.346-0.946c0.21-0.379,1.724-4.163,2.355-5.93l2.061-5.509
	c0.042-0.21,0.168-0.588,0.042-0.714c-0.063-0.064-0.126-0.189-0.126-0.253c0-0.084,0.042-0.168,0.21-0.21
	c0.673-0.169,1.829-0.799,2.081-1.052c0.127-0.126,0.21-0.211,0.315-0.211c0.126,0,0.211,0.253,0.253,0.379
	c0.379,1.303,2.019,6.014,2.398,7.359c0.505,1.64,1.85,5.551,2.145,6.118c0.378,0.715,0.925,0.967,1.346,0.967h0.673
	c0.127,0,0.168,0.042,0.168,0.147v0.441c0,0.126-0.042,0.252-0.21,0.252c-0.379,0-0.799-0.063-3.112-0.063
	c-1.767,0-2.481,0.063-2.944,0.063c-0.169,0-0.21-0.126-0.21-0.252v-0.42c0-0.127,0.042-0.169,0.168-0.169h0.547
	c0.589,0,0.757-0.211,0.631-0.778c-0.168-0.757-1.009-3.448-1.262-4.227H235.797z M240.465,404.746
	c-0.211-0.609-1.641-5.404-1.767-5.824c-0.085-0.252-0.126-0.379-0.21-0.379c-0.126,0-0.21,0.085-0.273,0.274
	c-0.085,0.274-1.977,5.446-2.124,5.929H240.465z"/>
<path fill="#FFFFFF" d="M251.65,401.866c0,3.576,0.169,6.519,0.21,7.171c0.042,1.051,0.294,1.556,1.051,1.556h0.547
	c0.169,0,0.169,0.085,0.169,0.189v0.484c0,0.126,0,0.168-0.169,0.168c-0.21,0-1.472-0.063-2.271-0.063
	c-0.546,0-1.977,0.063-2.187,0.063c-0.084,0-0.126-0.042-0.126-0.189v-0.526c0-0.041,0.042-0.126,0.126-0.126h0.715
	c0.547,0,0.842-0.463,0.946-1.746c0.021-0.379,0.148-3.322,0.148-6.686v-2.671c0-1.261-0.715-2.229-1.64-2.229h-0.673
	c-0.085-0.021-0.126-0.063-0.126-0.147v-0.568c0-0.083,0.041-0.126,0.126-0.126c0.105,0,0.273,0.021,0.652,0.043
	c0.378,0.021,0.946,0.021,1.871,0.021c0.358,0,0.673-0.021,0.925-0.042c0.273,0,0.463-0.021,0.589-0.021
	c0.252,0,0.378,0.063,0.505,0.189c0.21,0.211,4.331,5.383,4.752,5.972c0.294,0.336,3.574,4.415,3.911,4.836h0.084v-2.186
	c0-1.85,0-2.902-0.042-3.953c-0.042-0.799-0.126-2.861-0.231-3.217c-0.147-0.504-0.61-0.799-1.115-0.799h-0.673
	c-0.126,0-0.126-0.085-0.126-0.189v-0.483c0-0.126,0-0.169,0.168-0.169c0.253,0,0.926,0.063,2.356,0.063
	c1.261,0,1.766-0.063,2.018-0.063c0.168,0,0.211,0.084,0.211,0.147v0.483c0,0.126-0.043,0.211-0.126,0.211h-0.589
	c-0.421,0-0.63,0.336-0.693,1.115c-0.106,1.429-0.316,4.962-0.316,7.107v5.551c0,0.295,0,0.589-0.252,0.589
	c-0.294,0-0.547-0.168-0.716-0.336c-0.168-0.21-1.303-1.514-2.607-3.07c-1.471-1.809-3.112-3.785-3.364-4.121
	c-0.294-0.295-3.658-4.5-3.911-4.795h-0.126V401.866z"/>
<path fill="#FFFFFF" d="M270.111,405.587c-0.168,0.484-1.198,3.491-1.303,4.059c-0.042,0.168-0.042,0.337-0.042,0.441
	c0,0.273,0.337,0.505,0.757,0.505h0.883c0.168,0,0.21,0.042,0.21,0.105v0.526c0,0.126-0.042,0.211-0.168,0.211
	c-0.294,0-1.177-0.063-2.65-0.063c-1.556,0-2.018,0.063-2.313,0.063c-0.127,0-0.127-0.126-0.127-0.274v-0.398
	c0-0.127,0.043-0.169,0.127-0.169h0.631c0.589,0,0.967-0.294,1.346-0.946c0.211-0.379,1.724-4.163,2.355-5.93l2.061-5.509
	c0.042-0.21,0.168-0.588,0.042-0.714c-0.063-0.064-0.126-0.189-0.126-0.253c0-0.084,0.041-0.168,0.21-0.21
	c0.673-0.169,1.829-0.799,2.082-1.052c0.126-0.126,0.21-0.211,0.315-0.211c0.127,0,0.21,0.253,0.253,0.379
	c0.378,1.303,2.018,6.014,2.397,7.359c0.504,1.64,1.85,5.551,2.145,6.118c0.378,0.715,0.926,0.967,1.345,0.967h0.674
	c0.126,0,0.167,0.042,0.167,0.147v0.441c0,0.126-0.042,0.252-0.211,0.252c-0.378,0-0.798-0.063-3.111-0.063
	c-1.767,0-2.481,0.063-2.944,0.063c-0.168,0-0.21-0.126-0.21-0.252v-0.42c0-0.127,0.042-0.169,0.168-0.169h0.547
	c0.589,0,0.757-0.211,0.631-0.778c-0.168-0.757-1.009-3.448-1.262-4.227H270.111z M274.779,404.746
	c-0.21-0.609-1.64-5.404-1.766-5.824c-0.085-0.252-0.126-0.379-0.211-0.379c-0.126,0-0.21,0.085-0.273,0.274
	c-0.085,0.274-1.977,5.446-2.124,5.929H274.779z"/>
<path fill="#FFFFFF" d="M287.857,403.8c0-1.682,1.262-2.733,2.733-2.733c1.472,0,2.734,1.009,2.734,2.733
	c0,1.598-1.262,2.566-2.734,2.566C289.245,406.366,287.857,405.357,287.857,403.8z"/>
<path fill="#FFFFFF" d="M303.081,406.022c0.095,0,0.144,0.048,0.144,0.192c0.048,0.768,0.24,1.678,0.911,2.734
	c0.72,1.151,1.967,1.727,3.167,1.727c1.295,0,3.117-0.816,3.117-2.806c0-2.207-1.007-2.926-3.549-3.885
	c-0.767-0.288-2.35-0.96-3.501-2.014c-0.815-0.768-1.2-1.966-1.2-3.43c0-1.343,0.529-2.447,1.679-3.358
	c0.959-0.815,2.015-1.151,3.406-1.151c1.584,0,2.542,0.384,3.021,0.575c0.24,0.096,0.385,0.048,0.504-0.072l0.312-0.312
	c0.096-0.095,0.191-0.144,0.336-0.144c0.144,0,0.191,0.144,0.191,0.384c0,0.384,0.384,3.742,0.384,3.981
	c0,0.096-0.048,0.144-0.144,0.168l-0.383,0.12c-0.096,0.023-0.193,0-0.24-0.145c-0.24-0.671-0.624-1.63-1.488-2.542
	c-0.623-0.672-1.39-1.008-2.494-1.008c-1.918,0-2.686,1.535-2.686,2.423c0,0.815,0.096,1.535,0.671,2.159
	c0.625,0.624,1.967,1.199,2.927,1.487c1.391,0.431,2.542,0.91,3.453,1.871c0.768,0.815,1.199,1.822,1.199,3.429
	c0,2.926-1.918,5.324-5.084,5.324c-1.966,0-3.118-0.431-4.077-1.15c-0.288-0.193-0.431-0.289-0.576-0.289
	c-0.145,0-0.24,0.193-0.383,0.432c-0.144,0.24-0.24,0.288-0.432,0.288c-0.193,0-0.288-0.144-0.288-0.384
	c0.048-0.288,0.384-4.173,0.431-4.461c0.025-0.144,0.049-0.191,0.145-0.191L303.081,406.022z"/>
<path fill="#FFFFFF" d="M316.57,398.017c-0.21-0.589-0.547-0.757-0.883-0.757h-0.589c-0.083,0-0.126-0.063-0.126-0.147v-0.547
	c0-0.104,0.063-0.147,0.168-0.147c0.168,0,0.798,0.063,2.692,0.063c1.514,0,2.397-0.063,2.607-0.063
	c0.126,0,0.168,0.043,0.168,0.147v0.526c0,0.105-0.042,0.168-0.189,0.168h-0.399c-0.421,0-0.652,0.295-0.506,0.737l3.092,9.714
	l0.042,0.021c0.168-0.442,2.965-8.18,3.007-8.979c0-0.378-0.169-0.841-0.379-1.115c-0.168-0.253-0.462-0.379-0.715-0.379h-0.441
	c-0.085,0-0.147-0.042-0.147-0.147v-0.525c0-0.105,0.042-0.169,0.168-0.169c0.168,0,0.925,0.063,2.734,0.063
	c1.766,0,2.566-0.063,2.755-0.063c0.126,0,0.147,0.063,0.147,0.189v0.484c0,0.105-0.042,0.168-0.147,0.168h-0.736
	c-0.42,0-0.568,0.463-0.463,0.82l3.028,9.715h0.085c0.631-1.85,3.027-8.789,3.027-9.946c0-0.294-0.209-0.589-0.714-0.589h-0.568
	c-0.127,0-0.147-0.063-0.147-0.168v-0.504c0-0.105,0.042-0.169,0.168-0.169c0.21,0,0.925,0.063,2.229,0.063
	c1.177,0,1.808-0.063,1.977-0.063c0.083,0,0.126,0.043,0.126,0.105v0.568c0,0.105-0.021,0.168-0.147,0.168h-0.441
	c-0.337,0-0.715,0.211-0.926,0.694c-0.21,0.462-4.5,12.238-4.92,13.289c-0.085,0.211-0.253,0.547-0.547,0.547
	c-0.294,0-0.442-0.21-0.525-0.462l-3.806-11.061h-0.085c-0.189,0.589-3.911,10.892-3.994,11.124
	c-0.085,0.21-0.295,0.399-0.548,0.399c-0.21,0-0.357-0.126-0.42-0.336L316.57,398.017z"/>
<path fill="#FFFFFF" d="M343.799,404.557c0,0.21,0.042,5.047,0.042,5.278c0,0.673,0.336,0.757,0.842,0.757h0.883
	c0.083,0,0.167,0.042,0.167,0.147v0.526c0,0.126-0.084,0.168-0.21,0.168c-0.252,0-1.094-0.063-3.07-0.063
	c-2.103,0-3.027,0.063-3.237,0.063c-0.127,0-0.169-0.042-0.169-0.147v-0.568c0-0.084,0.042-0.126,0.169-0.126h0.841
	c0.421,0,0.883-0.042,0.968-0.609c0.041-0.295,0.083-4.837,0.083-5.972v-1.472c0-0.505-0.042-4.29-0.063-4.563
	c-0.063-0.504-0.273-0.715-0.862-0.715h-1.094c-0.126,0-0.168-0.042-0.168-0.147v-0.547c0-0.104,0.043-0.147,0.126-0.147
	c0.253,0,1.346,0.063,3.406,0.063c2.02,0,2.692-0.063,2.987-0.063c0.126,0,0.168,0.084,0.168,0.189v0.484
	c0,0.126-0.085,0.168-0.168,0.168h-0.799c-0.463,0-0.799,0.168-0.799,0.568c0,0.211-0.042,4.837-0.042,5.089V404.557z"/>
<path fill="#FFFFFF" d="M353.891,397.366h-0.589c-0.673,0-2.187,0-3.07,0.294c-0.673,0.294-1.472,1.682-1.872,2.397
	c-0.063,0.105-0.126,0.19-0.231,0.147l-0.421-0.147c-0.083-0.042-0.105-0.105-0.083-0.211l1.009-3.869
	c0.042-0.294,0.168-0.379,0.253-0.379c0.126,0,0.211,0.084,0.336,0.211c0.42,0.42,0.841,0.526,1.43,0.546
	c1.136,0.043,2.019,0.127,4.08,0.127h1.135c2.313,0,3.196-0.084,4.164-0.127c0.4-0.02,1.198-0.315,1.513-0.546
	c0.169-0.126,0.253-0.211,0.38-0.211c0.126,0,0.168,0.084,0.21,0.337c0.042,0.379,0.463,2.986,0.631,3.995
	c0.021,0.127-0.021,0.169-0.084,0.19l-0.421,0.146c-0.083,0.021-0.126-0.042-0.189-0.168c-0.294-0.589-1.072-1.934-1.661-2.355
	c-0.589-0.337-2.481-0.379-3.238-0.379h-0.589v11.208c0,1.598,0.211,2.018,0.715,2.018h1.22c0.083,0,0.126,0.085,0.126,0.189v0.441
	c0,0.126-0.042,0.211-0.21,0.211c-0.211,0-0.883-0.063-3.155-0.063c-2.145,0-3.028,0.063-3.322,0.063
	c-0.126,0-0.168-0.042-0.168-0.189v-0.483c0-0.127,0.063-0.169,0.146-0.169h1.199c0.421,0,0.672-0.253,0.694-0.568
	c0.063-0.547,0.063-6.981,0.063-7.402V397.366z"/>
<path fill="#FFFFFF" d="M364.426,411.37c-0.211,0-0.316-0.063-0.316-0.189s0.043-0.273,0.127-0.4
	c3.238-4.5,6.497-9.021,9.715-13.542h-4.878c-0.294,0-0.631,0.084-1.031,0.358c-0.462,0.294-2.229,2.355-2.629,2.965
	c-0.084,0.126-0.167,0.126-0.252,0.084l-0.294-0.168c-0.085,0-0.085-0.042-0.085-0.168l1.346-3.743
	c0.042-0.189,0.167-0.231,0.252-0.231c0.126,0,0.294,0.02,0.463,0.042c1.009,0.126,3.953,0.105,5.719,0.105
	c1.051,0,1.977-0.042,2.775-0.042c0.715-0.042,1.43-0.085,1.809-0.085c0.316,0,0.421,0.274,0.253,0.505
	c-3.323,4.563-6.603,9.148-9.883,13.71h5.594c0.337,0,1.052,0,1.346-0.126c0.715-0.294,2.65-2.565,2.944-2.943
	c0.084-0.084,0.168-0.084,0.252-0.042l0.337,0.168c0.042,0.042,0.085,0.084,0.042,0.21c-0.294,0.462-1.346,3.07-1.556,3.617
	c-0.043,0.126-0.168,0.231-0.294,0.231c-0.085,0-0.252-0.021-0.505-0.063c-1.178-0.168-4.5-0.253-6.435-0.253H364.426z"/>
<path fill="#FFFFFF" d="M384.841,405.272c0.021,1.135,0.064,3.196,0.064,3.574c0,1.094,0.378,1.514,0.841,1.641
	c0.337,0.083,0.841,0.168,1.641,0.168c0.378,0,1.346-0.042,1.766-0.085c0.378-0.042,1.178-0.252,1.724-0.714
	c0.378-0.337,1.556-1.724,1.956-2.229c0.084-0.105,0.147-0.126,0.231-0.084l0.336,0.21c0.063,0.043,0.083,0.105,0.042,0.211
	l-1.009,3.155c-0.063,0.189-0.21,0.315-0.462,0.315c-0.105,0-0.568-0.021-1.872-0.042c-1.324,0-3.49-0.022-7.001-0.022
	c-0.778,0-1.345,0.022-1.788,0.022c-0.42,0.02-0.715,0.042-0.904,0.042c-0.126,0-0.168-0.042-0.168-0.168v-0.505
	c0-0.127,0.042-0.169,0.211-0.169h0.715c0.967,0,1.051-0.126,1.051-0.905v-7.065c0-1.724-0.042-4.332-0.084-4.625
	c-0.084-0.568-0.294-0.737-0.926-0.737h-0.798c-0.085,0-0.126-0.042-0.126-0.147v-0.547c0-0.104,0.021-0.147,0.126-0.147
	c0.462,0,1.22,0.084,2.944,0.063h0.588c0.925,0,5.762-0.042,6.687-0.042c0.337,0,0.737-0.021,0.841-0.021
	c0.105,0,0.147,0.043,0.168,0.126c0.085,0.273,0.884,3.133,0.967,3.344c0.043,0.126,0.022,0.189-0.063,0.232l-0.379,0.168
	c-0.063,0.021-0.126,0-0.189-0.105c-0.085-0.126-1.809-2.061-2.314-2.356c-0.441-0.252-1.009-0.525-1.598-0.546l-3.196-0.085
	l-0.041,6.077c0.63,0,2.144-0.042,2.396-0.105c0.462-0.085,0.715-0.253,0.967-0.757c0.126-0.273,0.337-0.799,0.337-1.178
	c0-0.126,0.084-0.168,0.168-0.168l0.547,0.042c0.083,0,0.146,0.042,0.126,0.169c-0.042,0.336-0.042,1.724-0.042,2.271
	c0,0.841,0.085,1.85,0.127,2.313c0,0.105-0.043,0.126-0.169,0.148l-0.463,0.083c-0.083,0.021-0.126-0.021-0.168-0.147
	c-0.085-0.337-0.231-0.799-0.336-1.052c-0.19-0.42-0.589-0.715-1.051-0.757c-0.758-0.085-1.767-0.126-2.439-0.126L384.841,405.272z"
	/>
<path fill="#FFFFFF" d="M399.77,405.861c0,1.262,0.042,3.617,0.085,3.932c0.063,0.42,0.21,0.799,0.546,0.799h1.052
	c0.126,0,0.168,0.063,0.168,0.147v0.504c0,0.148-0.063,0.189-0.231,0.189c-0.273,0-0.694-0.063-2.881-0.063
	c-2.061,0-2.566,0.063-2.776,0.063c-0.126,0-0.168-0.063-0.168-0.189v-0.483c0-0.106,0.042-0.169,0.126-0.169h0.714
	c0.463,0,0.799-0.126,0.799-0.694c0.042-2.103,0.042-4.079,0.042-6.056v-5.53c0-0.715-0.294-1.052-0.672-1.052h-0.82
	c-0.105,0-0.147-0.042-0.147-0.126v-0.568c0-0.104,0.042-0.147,0.147-0.147c0.147,0,0.82,0.063,2.88,0.063
	c1.178,0,3.112-0.063,3.743-0.063c1.682,0,2.986,0.568,3.828,1.325c0.757,0.672,1.135,1.555,1.135,2.355
	c0,2.65-1.598,3.743-3.911,4.122v0.083c0.589,0.211,0.967,0.589,1.261,0.967c0.252,0.336,1.556,2.313,1.724,2.565
	c0.126,0.211,1.472,2.103,1.787,2.397c0.4,0.357,0.989,0.399,1.493,0.399c0.126,0,0.168,0.063,0.168,0.147v0.441
	c0,0.147-0.042,0.211-0.168,0.211c-0.168,0-0.715-0.063-2.061-0.063c-0.589,0-1.388,0.042-1.85,0.063
	c-0.253-0.189-0.652-0.757-0.925-1.198c-0.379-0.589-1.199-2.102-1.389-2.439c-0.21-0.379-0.798-1.345-1.135-1.809
	c-0.526-0.737-1.009-1.304-1.893-1.304c-0.083,0-0.441,0.021-0.673,0.042V405.861z M399.813,403.969
	c0.294,0.042,0.547,0.083,0.799,0.083c3.281,0,3.953-2.649,3.953-3.616c0-0.967-0.4-1.871-0.924-2.355
	c-0.758-0.673-1.724-0.905-2.776-0.905c-0.336,0-0.589,0.022-0.757,0.127c-0.169,0.105-0.252,0.357-0.252,0.609L399.813,403.969z"/>
<path fill="#FFFFFF" d="M424.014,407.039c0.043,0.042,0.043,0.083,0.043,0.21c-0.085,0.126-0.926,3.617-1.052,4.185
	c-0.546-0.021-6.603-0.063-8.747-0.063c-1.893,0-2.65,0.063-2.902,0.063c-0.168,0-0.168-0.042-0.168-0.189v-0.483
	c0-0.127,0-0.169,0.126-0.169h0.84c0.758,0,0.884-0.294,0.884-0.568c0-0.379,0.083-5.635,0.083-6.897v-1.177
	c0-1.346-0.042-3.575-0.083-3.933c-0.043-0.546-0.126-0.757-0.673-0.757h-0.883c-0.126,0-0.168-0.126-0.168-0.189v-0.483
	c0-0.126,0.042-0.169,0.168-0.169c0.211,0,0.967,0.063,2.902,0.063c2.27,0,3.154-0.063,3.322-0.063c0.168,0,0.211,0.084,0.211,0.189
	v0.484c0,0.083-0.043,0.168-0.211,0.168h-1.135c-0.632,0-0.715,0.211-0.715,0.778c0,0.294-0.085,3.448-0.085,4.921v1.808
	c0,0.379,0,4.92,0.085,5.825h1.177c1.177,0,2.691,0,3.533-0.105c1.178-0.168,2.523-2.691,2.818-3.491
	c0.084-0.083,0.126-0.126,0.252-0.083L424.014,407.039z"/>
<path fill="#FFFFFF" d="M429.733,405.587c-0.168,0.484-1.199,3.491-1.304,4.059c-0.042,0.168-0.042,0.337-0.042,0.441
	c0,0.273,0.337,0.505,0.757,0.505h0.883c0.169,0,0.211,0.042,0.211,0.105v0.526c0,0.126-0.042,0.211-0.168,0.211
	c-0.295,0-1.178-0.063-2.65-0.063c-1.556,0-2.018,0.063-2.314,0.063c-0.126,0-0.126-0.126-0.126-0.274v-0.398
	c0-0.127,0.042-0.169,0.126-0.169h0.631c0.589,0,0.967-0.294,1.345-0.946c0.211-0.379,1.725-4.163,2.356-5.93l2.06-5.509
	c0.042-0.21,0.168-0.588,0.042-0.714c-0.063-0.064-0.126-0.189-0.126-0.253c0-0.084,0.042-0.168,0.21-0.21
	c0.673-0.169,1.829-0.799,2.081-1.052c0.126-0.126,0.211-0.211,0.316-0.211c0.126,0,0.21,0.253,0.252,0.379
	c0.379,1.303,2.02,6.014,2.398,7.359c0.505,1.64,1.851,5.551,2.145,6.118c0.378,0.715,0.925,0.967,1.346,0.967h0.673
	c0.126,0,0.168,0.042,0.168,0.147v0.441c0,0.126-0.042,0.252-0.21,0.252c-0.379,0-0.799-0.063-3.112-0.063
	c-1.766,0-2.481,0.063-2.944,0.063c-0.168,0-0.211-0.126-0.211-0.252v-0.42c0-0.127,0.043-0.169,0.169-0.169h0.546
	c0.589,0,0.757-0.211,0.631-0.778c-0.168-0.757-1.009-3.448-1.262-4.227H429.733z M434.401,404.746
	c-0.21-0.609-1.64-5.404-1.766-5.824c-0.085-0.252-0.126-0.379-0.21-0.379c-0.126,0-0.211,0.085-0.273,0.274
	c-0.083,0.274-1.977,5.446-2.124,5.929H434.401z"/>
<path fill="#FFFFFF" d="M445.585,401.866c0,3.576,0.169,6.519,0.211,7.171c0.042,1.051,0.294,1.556,1.052,1.556h0.546
	c0.168,0,0.168,0.085,0.168,0.189v0.484c0,0.126,0,0.168-0.168,0.168c-0.21,0-1.472-0.063-2.271-0.063
	c-0.547,0-1.977,0.063-2.186,0.063c-0.084,0-0.126-0.042-0.126-0.189v-0.526c0-0.041,0.042-0.126,0.126-0.126h0.715
	c0.547,0,0.841-0.463,0.947-1.746c0.02-0.379,0.146-3.322,0.146-6.686v-2.671c0-1.261-0.714-2.229-1.64-2.229h-0.673
	c-0.084-0.021-0.126-0.063-0.126-0.147v-0.568c0-0.083,0.043-0.126,0.126-0.126c0.105,0,0.273,0.021,0.652,0.043
	c0.378,0.021,0.947,0.021,1.871,0.021c0.357,0,0.673-0.021,0.926-0.042c0.272,0,0.462-0.021,0.588-0.021
	c0.253,0,0.38,0.063,0.506,0.189c0.21,0.211,4.331,5.383,4.751,5.972c0.295,0.336,3.576,4.415,3.911,4.836h0.085v-2.186
	c0-1.85,0-2.902-0.042-3.953c-0.043-0.799-0.126-2.861-0.232-3.217c-0.147-0.504-0.61-0.799-1.114-0.799h-0.673
	c-0.126,0-0.126-0.085-0.126-0.189v-0.483c0-0.126,0-0.169,0.169-0.169c0.252,0,0.925,0.063,2.355,0.063
	c1.261,0,1.766-0.063,2.018-0.063c0.168,0,0.211,0.084,0.211,0.147v0.483c0,0.126-0.042,0.211-0.126,0.211h-0.589
	c-0.421,0-0.631,0.336-0.694,1.115c-0.105,1.429-0.316,4.962-0.316,7.107v5.551c0,0.295,0,0.589-0.252,0.589
	c-0.295,0-0.547-0.168-0.715-0.336c-0.168-0.21-1.304-1.514-2.607-3.07c-1.472-1.809-3.113-3.785-3.365-4.121
	c-0.294-0.295-3.659-4.5-3.911-4.795h-0.126V401.866z"/>
<path fill="#FFFFFF" d="M462.828,401.698c0-0.547-0.085-3.533-0.126-3.848c-0.043-0.504-0.337-0.589-0.758-0.589h-1.135
	c-0.084,0-0.168-0.042-0.168-0.147v-0.568c0-0.083,0.084-0.126,0.189-0.126c0.609,0,1.703,0.063,3.175,0.063
	c1.052,0,2.104-0.063,3.155-0.063c2.818,0,5.089,0.273,7.024,1.913c1.387,1.137,2.355,2.902,2.355,5.342
	c0,2.397-0.674,3.995-2.061,5.509c-2.061,2.229-5.341,2.25-6.771,2.25c-0.799,0-2.945-0.063-3.996-0.063
	c-1.85,0-2.691,0.063-2.986,0.063c-0.084,0-0.127-0.042-0.127-0.189v-0.526c0-0.084,0.043-0.126,0.168-0.126h1.22
	c0.42,0,0.63-0.168,0.694-0.526c0.063-0.42,0.148-5.173,0.148-6.771V401.698z M465.477,403.759c0,0.252,0.042,3.826,0.042,5.13
	c0,0.421,0.084,0.757,0.379,1.177c0.252,0.4,1.051,0.568,1.85,0.568c1.64,0,3.322-0.736,4.374-2.124
	c0.883-1.136,1.514-2.86,1.514-4.794c0-1.682-0.715-3.491-1.682-4.584c-1.135-1.219-2.985-1.977-4.71-1.977
	c-0.462,0-1.009,0-1.345,0.211c-0.295,0.168-0.379,0.505-0.379,0.925c-0.042,0.883-0.042,3.617-0.042,3.953V403.759z"/>
<path fill="#FFFFFF" d="M54.6,358.047c-0.444,0-0.563,0.161-0.563,0.524v1.733c0,1.451,0.081,6.127,0.161,8.907
	c0.04,0.968,0.727,1.371,1.613,1.371h1.451c0.322,0,0.402,0.081,0.402,0.283v0.927c0,0.241-0.08,0.404-0.402,0.404
	c-0.727,0-2.097-0.121-5.401-0.121c-3.95,0-4.607,0.121-5.414,0.121c-0.322,0-0.403-0.163-0.403-0.363v-0.927
	c0-0.243,0.081-0.323,0.403-0.323h2.097c0.968,0,1.129-0.966,1.129-1.895c0-1.934,0.08-6.53,0.08-9.109v-5.159
	c0-1.21-0.08-6.208-0.08-6.811c0-2.016-0.242-2.58-1.532-2.58h-1.774c-0.322,0-0.403-0.163-0.403-0.363v-0.846
	c0-0.163,0.08-0.404,0.403-0.404c0.726,0,1.463,0.121,5.413,0.121c3.628,0,5.079-0.121,5.804-0.121c0.323,0,0.404,0.161,0.404,0.363
	v0.846c0,0.241-0.081,0.404-0.404,0.404h-1.451c-1.451,0-1.855,0.644-1.896,2.216c-0.04,0.564-0.201,5.884-0.201,6.932v1.612
	c0,0.405,0.12,0.565,0.483,0.565h13.763c0.645,0,0.806-0.121,0.806-0.565v-1.209c0-1.451-0.161-7.093-0.202-7.537
	c-0.039-1.29-0.201-2.014-1.088-2.014h-2.072c-0.283,0-0.324-0.121-0.324-0.363v-0.926c0-0.203,0.041-0.324,0.324-0.324
	c0.724,0,2.499,0.121,5.723,0.121c3.063,0,4.173-0.121,4.816-0.121c0.402,0,0.485,0.161,0.485,0.363v0.846
	c0,0.241-0.083,0.404-0.485,0.404h-1.451c-1.209,0-1.29,0.644-1.29,2.056c0,0.563-0.08,6.045-0.08,7.335v4.354
	c0,1.773,0.08,7.496,0.08,9.794c0,1.451,0.403,2.014,1.612,2.014h1.614c0.242,0,0.322,0.121,0.322,0.283v0.927
	c0,0.241-0.08,0.404-0.405,0.404c-0.644,0-1.51-0.121-4.977-0.121c-3.789,0-5.079,0.121-6.208,0.121
	c-0.242,0-0.322-0.202-0.322-0.363v-0.927c0-0.202,0.041-0.323,0.322-0.323h2.396c0.968,0,1.007-0.724,1.048-1.814
	c0.08-1.934,0.161-8.383,0.161-9.109v-1.129c0-0.362-0.322-0.483-0.887-0.483H54.6z"/>
<path fill="#FFFFFF" d="M122.389,348.803h-0.979c-1.118,0-3.633,0-5.101,0.49c-1.118,0.489-2.447,2.795-3.111,3.982
	c-0.103,0.175-0.209,0.315-0.384,0.245l-0.697-0.245c-0.14-0.07-0.176-0.174-0.14-0.349l1.676-6.43
	c0.07-0.488,0.281-0.628,0.42-0.628c0.209,0,0.349,0.139,0.558,0.349c0.699,0.697,1.397,0.873,2.376,0.909
	c1.887,0.07,3.354,0.209,6.778,0.209h1.774c3.843,0,5.024-0.139,6.631-0.209c0.663-0.036,1.991-0.524,2.515-0.909
	c0.281-0.21,0.421-0.349,0.63-0.349c0.209,0,0.279,0.139,0.348,0.558c0.07,0.63,0.77,4.961,1.048,6.639
	c0.036,0.209-0.034,0.279-0.139,0.315l-0.697,0.243c-0.142,0.036-0.212-0.07-0.315-0.279c-0.49-0.978-1.782-3.215-2.76-3.912
	c-0.978-0.56-4.123-0.63-5.381-0.63h-0.979v18.622c0,2.657,0.349,3.354,1.188,3.354h2.027c0.139,0,0.21,0.14,0.21,0.315v0.734
	c0,0.209-0.07,0.35-0.349,0.35c-0.349,0-1.182-0.105-4.955-0.105c-3.563,0-4.917,0.105-5.407,0.105c-0.209,0-0.279-0.07-0.279-0.315
	v-0.803c0-0.211,0.105-0.281,0.245-0.281h1.992c0.699,0,1.118-0.418,1.152-0.943c0.105-0.909,0.105-11.599,0.105-12.299V348.803z"/>
<path fill="#FFFFFF" d="M148.453,361.941c0.034,1.887,0.104,5.311,0.104,5.939c0,1.818,0.63,2.517,1.399,2.727
	c0.559,0.139,1.398,0.279,2.725,0.279c0.628,0,2.236-0.069,2.936-0.139c0.628-0.07,1.955-0.421,2.864-1.188
	c0.63-0.56,2.585-2.866,3.251-3.705c0.139-0.173,0.243-0.209,0.383-0.139l0.56,0.351c0.104,0.069,0.139,0.173,0.07,0.349
	l-1.678,5.242c-0.104,0.313-0.349,0.524-0.767,0.524c-0.176,0-0.945-0.036-3.111-0.07c-2.201,0-5.473-0.035-11.307-0.035
	c-1.293,0-2.236,0.035-2.971,0.035c-0.698,0.034-1.188,0.07-1.501,0.07c-0.212,0-0.281-0.07-0.281-0.281v-0.837
	c0-0.211,0.07-0.281,0.351-0.281h1.188c1.607,0,1.746-0.209,1.746-1.502v-11.74c0-2.866-0.07-7.197-0.139-7.687
	c-0.139-0.943-0.488-1.221-1.537-1.221h-1.327c-0.141,0-0.212-0.072-0.212-0.246v-0.908c0-0.176,0.036-0.245,0.212-0.245
	c0.768,0,2.025,0.14,4.891,0.105h0.78c1.537,0,9.445-0.07,10.983-0.07c0.558,0,1.221-0.036,1.397-0.036s0.245,0.07,0.279,0.209
	c0.139,0.454,1.469,5.208,1.608,5.556c0.07,0.21,0.034,0.315-0.105,0.385l-0.628,0.279c-0.106,0.036-0.211,0-0.315-0.176
	c-0.14-0.209-3.006-3.424-3.845-3.912c-0.734-0.421-1.676-0.873-2.655-0.909l-5.311-0.14l-0.07,10.097
	c1.049,0,3.564-0.069,3.984-0.173c0.768-0.139,1.188-0.421,1.607-1.258c0.209-0.454,0.56-1.329,0.56-1.957
	c0-0.21,0.139-0.28,0.279-0.28l0.909,0.07c0.139,0,0.243,0.07,0.209,0.279c-0.07,0.558-0.07,2.866-0.07,3.773
	c0,1.399,0.14,3.075,0.21,3.845c0,0.173-0.07,0.209-0.279,0.245l-0.769,0.139c-0.14,0.034-0.21-0.036-0.279-0.245
	c-0.139-0.56-0.384-1.328-0.56-1.748c-0.313-0.697-0.979-1.188-1.746-1.258c-1.257-0.139-2.936-0.209-4.054-0.209L148.453,361.941z"
	/>
<path fill="#FFFFFF" d="M187.091,364.877c0.07,0.07,0.07,0.139,0.07,0.349c-0.14,0.209-1.536,6.009-1.746,6.953
	c-0.909-0.036-10.777-0.105-14.34-0.105c-3.145,0-4.195,0.105-4.615,0.105c-0.279,0-0.279-0.07-0.279-0.315v-0.803
	c0-0.211,0-0.281,0.21-0.281h1.399c1.257,0,1.467-0.488,1.467-0.943c0-0.629,0.139-9.363,0.139-11.46v-1.957
	c0-2.236-0.07-5.939-0.139-6.533c-0.07-0.909-0.21-1.258-1.118-1.258h-1.467c-0.211,0-0.281-0.212-0.281-0.315v-0.803
	c0-0.211,0.07-0.281,0.281-0.281c0.349,0,1.398,0.105,4.614,0.105c3.772,0,5.046-0.105,5.326-0.105c0.279,0,0.349,0.14,0.349,0.315
	v0.803c0,0.139-0.07,0.281-0.349,0.281h-1.887c-1.048,0-1.188,0.348-1.188,1.292c0,0.49-0.139,5.73-0.139,8.175v3.006
	c0,0.629,0,8.176,0.139,9.678h1.957c1.958,0,4.473,0,5.87-0.173c1.958-0.281,4.193-4.473,4.682-5.801
	c0.139-0.14,0.211-0.21,0.42-0.14L187.091,364.877z"/>
<path fill="#FFFFFF" d="M236.873,367.237c0.08,0,0.08,0.161,0,0.324c-0.644,1.37-3.144,5.118-8.061,5.118
	c-4.433,0-6.61-3.185-8.544-5.522c-1.775,1.935-4.435,5.522-9.594,5.522c-4.837,0-8.949-3.265-8.949-7.053
	c0-2.983,1.693-5.32,3.387-6.772c1.29-1.289,2.982-2.338,4.352-3.064c-2.74-1.772-4.111-3.626-4.111-5.401
	c0-3.143,4.031-6.852,7.175-6.852c3.868,0,6.53,2.902,6.448,5.562c-0.081,2.257-2.741,4.596-4.674,5.481
	c2.982,1.37,6.127,4.596,8.222,7.578c1.289-1.612,2.903-4.674,2.983-6.125c0.081-0.646-0.404-1.21-1.209-1.21h-0.646
	c-0.161,0-0.242-0.081-0.242-0.323v-0.885c0-0.203,0.081-0.283,0.242-0.283c0.402,0,2.58,0.122,4.355,0.122
	c1.451,0,3.867-0.122,4.111-0.122c0.241,0,0.322,0.081,0.322,0.322v0.846c0,0.202-0.081,0.323-0.322,0.323h-0.646
	c-1.612,0-2.177,0.161-2.741,1.047c-0.322,0.485-3.467,5.483-5.16,7.659c0.564,0.565,2.258,2.66,3.226,3.547
	c0.725,0.807,2.497,2.66,4.755,2.66c2.499,0,4.031-2.499,4.274-2.902c0.161-0.161,0.242-0.161,0.322-0.081L236.873,367.237z
	 M212.204,369.697c3.789,0,5.886-2.46,7.175-3.83c-1.936-2.902-5.4-7.174-8.787-9.109c-2.016,1.129-4.272,4.111-4.191,7.417
	C206.482,367.478,209.786,369.697,212.204,369.697z M212.528,345.148c-2.016,0-3.145,2.177-3.145,4.354
	c0,1.612,2.016,3.304,3.708,4.272c0.807-0.727,2.257-1.775,2.257-4.757C215.349,347.406,214.301,345.148,212.528,345.148z"/>
<path fill="#FFFFFF" d="M258.234,361.514c0,2.418,0.081,6.932,0.161,7.536c0.122,0.807,0.403,1.531,1.048,1.531h2.015
	c0.241,0,0.323,0.121,0.323,0.283v0.968c0,0.283-0.121,0.363-0.444,0.363c-0.524,0-1.098-0.121-5.29-0.121
	c-3.95,0-4.518,0.121-4.92,0.121c-0.242,0-0.322-0.121-0.322-0.363v-0.927c0-0.202,0.08-0.323,0.242-0.323h1.371
	c0.887,0,1.531-0.241,1.531-1.329c0.081-4.03,0.081-7.819,0.081-11.608v-10.602c0-1.371-0.564-2.014-1.29-2.014h-1.572
	c-0.201,0-0.281-0.082-0.281-0.243v-1.088c0-0.202,0.081-0.283,0.281-0.283c0.283,0,1.173,0.121,5.122,0.121
	c2.258,0,5.733-0.121,6.943-0.121c3.223,0,5.149,1.089,6.761,2.54c1.451,1.289,2.177,2.982,2.177,4.513
	c0,5.078-2.49,7.176-6.924,7.9v0.161c1.129,0.404,1.42,1.129,1.983,1.855c0.485,0.644,2.982,4.433,3.306,4.918
	c0.242,0.402,2.821,4.03,3.426,4.594c0.766,0.685,1.895,0.766,2.862,0.766c0.241,0,0.322,0.121,0.322,0.283v0.846
	c0,0.283-0.081,0.404-0.322,0.404c-0.324,0-0.935-0.121-3.515-0.121c-1.128,0-2.395,0.081-3.28,0.121
	c-0.485-0.363-1.25-1.452-1.775-2.298c-0.724-1.129-2.297-4.031-2.66-4.674c-0.402-0.727-1.531-2.58-2.175-3.467
	c-1.009-1.411-1.936-2.499-3.628-2.499c-0.161,0-1.113,0.041-1.557,0.08V361.514z M258.314,357.886
	c0.564,0.081,1.049,0.161,1.532,0.161c6.288,0,7.578-5.079,7.578-6.932c0-1.855-0.765-3.589-1.773-4.515
	c-1.453-1.29-3.306-1.733-5.322-1.733c-0.644,0-1.127,0.041-1.451,0.243c-0.322,0.201-0.483,0.685-0.483,1.168L258.314,357.886z"/>
<path fill="#FFFFFF" d="M287.906,361.941c0.034,1.887,0.104,5.311,0.104,5.939c0,1.818,0.63,2.517,1.399,2.727
	c0.558,0.139,1.397,0.279,2.724,0.279c0.628,0,2.234-0.069,2.936-0.139c0.63-0.07,1.957-0.421,2.866-1.188
	c0.626-0.56,2.583-2.866,3.249-3.705c0.139-0.173,0.243-0.209,0.383-0.139l0.558,0.351c0.108,0.069,0.14,0.173,0.072,0.349
	l-1.678,5.242c-0.104,0.313-0.347,0.524-0.769,0.524c-0.172,0-0.941-0.036-3.109-0.07c-2.201,0-5.44-0.035-11.274-0.035
	c-1.293,0-2.236,0.035-2.971,0.035c-0.698,0.034-1.188,0.07-1.501,0.07c-0.211,0-0.281-0.07-0.281-0.281v-0.837
	c0-0.211,0.07-0.281,0.351-0.281h1.188c1.607,0,1.746-0.209,1.746-1.502v-11.74c0-2.866-0.069-7.197-0.139-7.687
	c-0.14-0.943-0.488-1.221-1.537-1.221h-1.327c-0.141,0-0.211-0.072-0.211-0.246v-0.908c0-0.176,0.036-0.245,0.211-0.245
	c0.767,0,1.871,0.14,4.737,0.105h0.773c1.536,0,9.574-0.07,11.109-0.07c0.561,0,1.223-0.036,1.398-0.036
	c0.176,0,0.243,0.07,0.279,0.209c0.14,0.454,1.467,5.208,1.607,5.556c0.071,0.21,0.035,0.315-0.104,0.385l-0.629,0.279
	c-0.104,0.036-0.207,0-0.315-0.176c-0.139-0.209-3.002-3.424-3.842-3.912c-0.733-0.421-1.678-0.873-2.655-0.909l-5.311-0.14
	l-0.07,10.097c1.048,0,3.564-0.069,3.984-0.173c0.767-0.139,1.188-0.421,1.607-1.258c0.209-0.454,0.56-1.329,0.56-1.957
	c0-0.21,0.139-0.28,0.279-0.28l0.909,0.07c0.139,0,0.243,0.07,0.207,0.279c-0.068,0.558-0.068,2.866-0.068,3.773
	c0,1.399,0.14,3.075,0.211,3.845c0,0.173-0.071,0.209-0.283,0.245l-0.766,0.139c-0.143,0.034-0.211-0.036-0.283-0.245
	c-0.138-0.56-0.383-1.328-0.559-1.748c-0.313-0.697-0.978-1.188-1.746-1.258c-1.257-0.139-2.935-0.209-4.053-0.209L287.906,361.941z
	"/>
<path fill="#FFFFFF" d="M308.023,364.283c0.139,0,0.207,0.07,0.207,0.279c0.072,1.118,0.351,2.445,1.327,3.982
	c1.048,1.678,2.866,2.517,4.612,2.517c1.889,0,4.544-1.188,4.544-4.09c0-3.213-1.467-4.261-5.17-5.66
	c-1.12-0.418-3.424-1.397-5.102-2.934c-1.188-1.118-1.749-2.866-1.749-4.997c0-1.957,0.769-3.564,2.447-4.893
	c1.399-1.188,2.934-1.676,4.962-1.676c2.305,0,3.703,0.559,4.401,0.839c0.351,0.14,0.562,0.07,0.734-0.105l0.454-0.454
	c0.139-0.139,0.279-0.21,0.49-0.21s0.279,0.21,0.279,0.558c0,0.56,0.558,5.451,0.558,5.801c0,0.14-0.068,0.21-0.208,0.243
	l-0.558,0.176c-0.143,0.036-0.283,0-0.35-0.21c-0.351-0.978-0.909-2.375-2.168-3.703c-0.909-0.978-2.025-1.469-3.632-1.469
	c-2.794,0-3.914,2.237-3.914,3.53c0,1.188,0.139,2.237,0.977,3.145c0.909,0.907,2.866,1.746,4.265,2.167
	c2.025,0.628,3.703,1.328,5.03,2.725c1.12,1.188,1.746,2.655,1.746,4.996c0,4.263-2.794,7.757-7.406,7.757
	c-2.866,0-4.54-0.629-5.939-1.678c-0.419-0.279-0.63-0.419-0.837-0.419c-0.212,0-0.351,0.279-0.562,0.63
	c-0.207,0.349-0.347,0.418-0.626,0.418c-0.283,0-0.423-0.209-0.423-0.558c0.072-0.42,0.562-6.08,0.63-6.499
	c0.036-0.21,0.072-0.281,0.211-0.281L308.023,364.283z"/>
<path fill="#FFFFFF" d="M334.447,360.754c0,0.349,0.068,8.384,0.068,8.77c0,1.118,0.559,1.257,1.399,1.257h1.467
	c0.139,0,0.279,0.07,0.279,0.245v0.873c0,0.211-0.139,0.281-0.35,0.281c-0.418,0-1.694-0.105-4.975-0.105
	c-3.495,0-4.758,0.105-5.104,0.105c-0.211,0-0.283-0.07-0.283-0.245v-0.943c0-0.141,0.072-0.211,0.283-0.211h1.396
	c0.701,0,1.467-0.07,1.607-1.012c0.071-0.49,0.143-8.036,0.143-9.923v-2.446c0-0.839-0.072-7.127-0.107-7.581
	c-0.104-0.839-0.454-1.188-1.431-1.188h-1.818c-0.211,0-0.279-0.072-0.279-0.246v-0.908c0-0.176,0.068-0.245,0.207-0.245
	c0.422,0,1.963,0.105,5.387,0.105c3.353,0,4.349-0.105,4.836-0.105c0.211,0,0.279,0.14,0.279,0.315v0.803
	c0,0.209-0.139,0.281-0.279,0.281h-1.328c-0.769,0-1.327,0.279-1.327,0.943c0,0.349-0.068,8.036-0.068,8.454V360.754z"/>
<path fill="#FFFFFF" d="M345.777,356.002c0-0.909-0.139-5.872-0.211-6.396c-0.068-0.837-0.558-0.977-1.256-0.977h-1.885
	c-0.139,0-0.283-0.072-0.283-0.246v-0.944c0-0.139,0.143-0.209,0.315-0.209c1.016,0,2.693,0.105,5.141,0.105
	c1.746,0,3.378-0.105,5.124-0.105c4.68,0,8.454,0.454,11.671,3.181c2.304,1.885,4.028,4.822,4.028,8.875
	c0,3.982-1.234,6.639-3.542,9.154c-3.424,3.703-8.873,3.739-11.249,3.739c-1.328,0-4.777-0.105-6.523-0.105
	c-3.074,0-4.336,0.105-4.822,0.105c-0.143,0-0.211-0.07-0.211-0.315v-0.873c0-0.141,0.068-0.211,0.279-0.211h2.025
	c0.702,0,1.048-0.279,1.156-0.873c0.104-0.699,0.243-8.596,0.243-11.25V356.002z M349.927,359.426c0,0.419,0.068,6.358,0.068,8.525
	c0,0.699,0.139,1.258,0.63,1.957c0.418,0.664,1.746,0.943,3.073,0.943c2.726,0,5.521-1.222,7.267-3.528
	c1.47-1.888,2.519-4.754,2.519-7.966c0-2.797-1.188-5.802-2.798-7.617c-1.886-2.027-4.959-3.285-7.825-3.285
	c-0.769,0-1.678,0-2.236,0.349c-0.491,0.279-0.63,0.839-0.63,1.539c-0.068,1.466-0.068,6.009-0.068,6.567V359.426z"/>
<path fill="#FFFFFF" d="M380.919,361.941c0.036,1.887,0.104,5.311,0.104,5.939c0,1.818,0.629,2.517,1.399,2.727
	c0.558,0.139,1.395,0.279,2.722,0.279c0.63,0,2.237-0.069,2.938-0.139c0.63-0.07,1.957-0.421,2.866-1.188
	c0.626-0.56,2.583-2.866,3.249-3.705c0.139-0.173,0.243-0.209,0.383-0.139l0.558,0.351c0.107,0.069,0.143,0.173,0.072,0.349
	l-1.678,5.242c-0.104,0.313-0.347,0.524-0.769,0.524c-0.172,0-0.941-0.036-3.109-0.07c-2.201,0-5.623-0.035-11.458-0.035
	c-1.292,0-2.096,0.035-2.829,0.035c-0.698,0.034-1.188,0.07-1.503,0.07c-0.208,0-0.28-0.07-0.28-0.281v-0.837
	c0-0.211,0.072-0.281,0.351-0.281h1.188c1.606,0,1.746-0.209,1.746-1.502v-11.74c0-2.866-0.068-7.197-0.139-7.687
	c-0.14-0.943-0.49-1.221-1.539-1.221h-1.327c-0.139,0-0.208-0.072-0.208-0.246v-0.908c0-0.176,0.032-0.245,0.208-0.245
	c0.769,0,1.888,0.14,4.75,0.105h0.98c1.539,0,9.397-0.07,10.932-0.07c0.561,0,1.224-0.036,1.398-0.036
	c0.176,0,0.243,0.07,0.28,0.209c0.139,0.454,1.467,5.208,1.607,5.556c0.072,0.21,0.035,0.315-0.104,0.385l-0.629,0.279
	c-0.104,0.036-0.208,0-0.315-0.176c-0.14-0.209-3.002-3.424-3.843-3.912c-0.733-0.421-1.678-0.873-2.655-0.909l-5.309-0.14
	l-0.072,10.097c1.048,0,3.564-0.069,3.982-0.173c0.77-0.139,1.188-0.421,1.61-1.258c0.208-0.454,0.559-1.329,0.559-1.957
	c0-0.21,0.139-0.28,0.279-0.28l0.909,0.07c0.139,0,0.243,0.07,0.208,0.279c-0.068,0.558-0.068,2.866-0.068,3.773
	c0,1.399,0.139,3.075,0.208,3.845c0,0.173-0.068,0.209-0.279,0.245l-0.766,0.139c-0.143,0.034-0.211-0.036-0.282-0.245
	c-0.139-0.56-0.383-1.328-0.559-1.748c-0.315-0.697-0.977-1.188-1.746-1.258c-1.26-0.139-2.934-0.209-4.054-0.209L380.919,361.941z"
	/>
<path fill="#FFFFFF" d="M403.101,356.281c0,5.939,0.279,10.832,0.35,11.914c0.068,1.748,0.491,2.585,1.746,2.585h0.909
	c0.279,0,0.279,0.14,0.279,0.315v0.803c0,0.211,0,0.281-0.279,0.281c-0.35,0-2.447-0.105-3.774-0.105
	c-0.909,0-3.284,0.105-3.632,0.105c-0.14,0-0.212-0.07-0.212-0.315v-0.873c0-0.071,0.072-0.211,0.212-0.211h1.188
	c0.909,0,1.395-0.767,1.571-2.9c0.035-0.628,0.246-5.521,0.246-11.111v-4.436c0-2.096-1.188-3.703-2.726-3.703h-1.12
	c-0.139-0.036-0.208-0.106-0.208-0.246v-0.944c0-0.139,0.068-0.209,0.208-0.209c0.176,0,0.454,0.036,1.084,0.07
	c0.63,0.036,1.574,0.036,3.109,0.036c0.594,0,1.12-0.036,1.538-0.07c0.454,0,0.77-0.036,0.977-0.036c0.422,0,0.63,0.105,0.841,0.315
	c0.347,0.349,7.195,8.945,7.896,9.923c0.487,0.558,5.939,7.337,6.498,8.036h0.139v-3.634c0-3.075,0-4.821-0.068-6.569
	c-0.071-1.327-0.211-4.751-0.386-5.345c-0.243-0.839-1.013-1.327-1.85-1.327h-1.12c-0.207,0-0.207-0.142-0.207-0.315v-0.803
	c0-0.211,0-0.281,0.279-0.281c0.419,0,1.535,0.105,3.911,0.105c2.096,0,2.938-0.105,3.356-0.105c0.279,0,0.351,0.14,0.351,0.245
	v0.803c0,0.21-0.072,0.351-0.211,0.351h-0.977c-0.701,0-1.048,0.558-1.155,1.852c-0.176,2.375-0.522,8.245-0.522,11.809v9.224
	c0,0.49,0,0.978-0.418,0.978c-0.49,0-0.909-0.279-1.188-0.558c-0.283-0.349-2.168-2.516-4.333-5.102
	c-2.447-3.004-5.174-6.288-5.592-6.848c-0.49-0.488-6.078-7.476-6.497-7.966h-0.211V356.281z"/>
<path fill="#FFFFFF" d="M452.222,366.378c0.104,0.105,0.139,0.211,0.068,0.35c-2.097,3.004-5.449,5.87-10.412,5.87
	c-4.472,0-6.987-1.327-9.152-3.284c-2.587-2.306-3.775-6.359-3.775-9.433c0-3.424,1.116-6.708,3.564-9.365
	c1.885-2.027,4.891-3.703,9.084-3.703c3.213,0,5.8,0.979,7.059,1.676c0.487,0.281,0.626,0.281,0.698,0l0.279-0.907
	c0.072-0.211,0.139-0.211,0.558-0.211c0.422,0,0.491,0.069,0.491,0.56c0,0.628,0.697,6.218,0.837,7.266
	c0.036,0.211,0,0.315-0.139,0.35l-0.662,0.21c-0.175,0.07-0.279-0.07-0.386-0.349c-0.419-1.259-1.256-3.005-2.723-4.542
	c-1.538-1.469-3.356-2.587-6.082-2.587c-5.589,0-7.897,5.033-7.897,10.063c0,2.167,0.63,6.29,3.217,9.084
	c2.304,2.448,4.333,2.727,6.011,2.727c3.842,0,6.88-1.921,8.351-4.053c0.171-0.246,0.311-0.349,0.418-0.246L452.222,366.378z"/>
<path fill="#FFFFFF" d="M464.021,361.941c0.035,1.887,0.103,5.311,0.103,5.939c0,1.818,0.63,2.517,1.399,2.727
	c0.559,0.139,1.395,0.279,2.723,0.279c0.629,0,2.236-0.069,2.938-0.139c0.629-0.07,1.957-0.421,2.866-1.188
	c0.626-0.56,2.583-2.866,3.249-3.705c0.139-0.173,0.243-0.209,0.383-0.139l0.558,0.351c0.107,0.069,0.139,0.173,0.071,0.349
	l-1.678,5.242c-0.104,0.313-0.347,0.524-0.769,0.524c-0.172,0-0.941-0.036-3.109-0.07c-2.201,0-5.62-0.035-11.456-0.035
	c-1.291,0-2.046,0.035-2.779,0.035c-0.698,0.034-1.188,0.07-1.503,0.07c-0.207,0-0.279-0.07-0.279-0.281v-0.837
	c0-0.211,0.071-0.281,0.35-0.281h1.188c1.607,0,1.746-0.209,1.746-1.502v-11.74c0-2.866-0.068-7.197-0.139-7.687
	c-0.14-0.943-0.49-1.221-1.539-1.221h-1.328c-0.139,0-0.207-0.072-0.207-0.246v-0.908c0-0.176,0.033-0.245,0.207-0.245
	c0.77,0,1.839,0.14,4.701,0.105h0.98c1.538,0,9.395-0.07,10.93-0.07c0.562,0,1.223-0.036,1.399-0.036s0.243,0.07,0.279,0.209
	c0.139,0.454,1.467,5.208,1.607,5.556c0.072,0.21,0.036,0.315-0.103,0.385l-0.63,0.279c-0.104,0.036-0.208,0-0.315-0.176
	c-0.14-0.209-3.002-3.424-3.843-3.912c-0.733-0.421-1.678-0.873-2.655-0.909l-5.31-0.14l-0.072,10.097
	c1.048,0,3.564-0.069,3.983-0.173c0.769-0.139,1.187-0.421,1.61-1.258c0.207-0.454,0.558-1.329,0.558-1.957
	c0-0.21,0.139-0.28,0.279-0.28l0.909,0.07c0.139,0,0.243,0.07,0.207,0.279c-0.068,0.558-0.068,2.866-0.068,3.773
	c0,1.399,0.14,3.075,0.211,3.845c0,0.173-0.071,0.209-0.283,0.245l-0.766,0.139c-0.143,0.034-0.211-0.036-0.283-0.245
	c-0.139-0.56-0.383-1.328-0.558-1.748c-0.315-0.697-0.977-1.188-1.746-1.258c-1.26-0.139-2.934-0.209-4.054-0.209L464.021,361.941z"
	/>
<path fill="#FFFFFF" d="M484.108,364.283c0.14,0,0.207,0.07,0.207,0.279c0.072,1.118,0.35,2.445,1.327,3.982
	c1.048,1.678,2.866,2.517,4.612,2.517c1.889,0,4.544-1.188,4.544-4.09c0-3.213-1.466-4.261-5.17-5.66
	c-1.119-0.418-3.427-1.397-5.102-2.934c-1.188-1.118-1.75-2.866-1.75-4.997c0-1.957,0.77-3.564,2.448-4.893
	c1.399-1.188,2.934-1.676,4.962-1.676c2.304,0,3.703,0.559,4.401,0.839c0.351,0.14,0.558,0.07,0.733-0.105l0.454-0.454
	c0.139-0.139,0.279-0.21,0.49-0.21c0.212,0,0.279,0.21,0.279,0.558c0,0.56,0.559,5.451,0.559,5.801c0,0.14-0.068,0.21-0.208,0.243
	l-0.559,0.176c-0.143,0.036-0.283,0-0.35-0.21c-0.35-0.978-0.909-2.375-2.168-3.703c-0.905-0.978-2.025-1.469-3.632-1.469
	c-2.794,0-3.914,2.237-3.914,3.53c0,1.188,0.139,2.237,0.977,3.145c0.909,0.907,2.866,1.746,4.264,2.167
	c2.026,0.628,3.704,1.328,5.031,2.725c1.12,1.188,1.746,2.655,1.746,4.996c0,4.263-2.794,7.757-7.406,7.757
	c-2.866,0-4.54-0.629-5.94-1.678c-0.418-0.279-0.629-0.419-0.837-0.419c-0.211,0-0.35,0.279-0.562,0.63
	c-0.207,0.349-0.348,0.418-0.626,0.418c-0.282,0-0.422-0.209-0.422-0.558c0.072-0.42,0.561-6.08,0.63-6.499
	c0.036-0.21,0.071-0.281,0.211-0.281L484.108,364.283z"/>
<path fill="#FFFFFF" d="M104.011,349.607c-2.866-2.306-5.66-2.794-8.247-2.794c-3.004,0-6.778,0.699-9.854,4.472
	c-2.619,3.249-3.213,6.569-3.213,8.666c0,5.03,2.619,8.839,5.1,10.342c2.796,1.677,5.8,2.306,7.896,2.306
	c5.242,0,8.247-2.167,10.483-4.96c1.885-2.378,2.585-5.102,2.585-7.688C108.763,355.197,106.632,351.739,104.011,349.607z
	 M97.428,371.33c-4.965,0.726-9.749-3.891-10.688-10.311c-0.938-6.421,2.326-12.213,7.29-12.939
	c4.965-0.725,9.75,3.892,10.688,10.312C105.657,364.812,102.393,370.604,97.428,371.33z"/>
<path fill="#FFFFFF" d="M195.148,397.989c-1.713-1.378-3.383-1.67-4.929-1.67c-1.795,0-4.051,0.418-5.889,2.673
	c-1.565,1.941-1.92,3.926-1.92,5.179c0,3.007,1.565,5.283,3.048,6.181c1.671,1.002,3.466,1.378,4.719,1.378
	c3.132,0,4.928-1.294,6.265-2.964c1.127-1.421,1.545-3.049,1.545-4.594C197.987,401.33,196.714,399.263,195.148,397.989z
	 M191.214,410.972c-2.967,0.434-5.622-2.31-6.183-6.147c-0.561-3.837,1.185-7.314,4.152-7.748c2.967-0.434,5.64,2.411,6.201,6.248
	C195.944,407.162,194.18,410.539,191.214,410.972z"/>
<path fill-rule="evenodd" fill="#FFFFFF" d="M85.666,313.336c0,3.595-0.277,5.112-1.865,6.084c-2.423,1.377-5.809,2.349-11.34,2.349
	c-4.491,0-8.712-1.598-12.168-4.91c-4.286-4.081-6.565-11.195-6.565-19.358c0-6.214,2.349-11.961,6.084-15.904
	c4.149-4.418,8.435-5.598,13.206-5.598c6.221,0,10.505,3.109,12.579,5.665c2.419,2.974,3.593,6.224,4.146,8.164
	c0.07,0.346,0.277,0.557,0.551,0.557l1.246-0.139c0.277,0,0.347-0.279,0.347-0.625l-0.21-13.208c0-0.486-0.137-0.823-0.621-0.823
	c-0.417,0-0.694,0.337-0.97,0.616l-1.037,1.247c-0.411,0.553-0.827,0.693-1.59,0.072c-2.346-1.796-7.668-4.004-13.614-4.004
	c-8.296,0-14.522,2.348-19.429,6.56c-5.111,4.558-7.807,11.272-7.807,17.559c0,8.371,2.142,14.247,6.358,19.012
	c4.772,5.599,13.205,7.889,19.357,7.889c7.742,0,13.272-1.598,18.87-4.438c0.694-0.27,1.104-0.548,1.104-1.102
	s-0.274-1.247-0.274-2.21v-9.126c0-2.142,0.898-2.628,2.144-2.628h2.694c0.416,0,0.483-0.275,0.483-0.553v-1.656
	c0-0.275-0.067-0.486-0.549-0.486c-0.972,0-3.182,0.212-8.159,0.212c-4.7,0-7.812-0.212-8.782-0.212
	c-0.341,0-0.417,0.139-0.417,0.559v1.723c0,0.279,0.145,0.414,0.491,0.414h2.897c2.075,0,2.838,0.693,2.838,3.181V313.336
	L85.666,313.336z"/>
<path fill-rule="evenodd" fill="#FFFFFF" d="M121.149,324.377c5.013,0,8.529-1.338,10.832-3.466
	c3.225-2.772,4.496-6.401,4.837-11.128c0.171-2.243,0.289-12.332,0.289-13.131c0-0.808,0-8.986,0.118-9.564
	c0.168-0.693,0.342-2.311,2.474-2.311h2.363c0.286,0,0.347-0.226,0.347-0.573v-1.261c0-0.178-0.061-0.409-0.581-0.409
	c-0.515,0-2.359,0.168-6.337,0.168c-3.857,0-6.507-0.168-7.083-0.168c-0.346,0-0.404,0.116-0.404,0.409v1.377
	c0,0.293,0.058,0.457,0.404,0.457h2.534c1.499,0,2.416,1.04,2.594,2.542c0.169,1.439,0.286,4.779,0.286,9.154v12.332
	c0,4.265-0.749,7.725-2.994,10.142c-2.02,2.069-5.362,3.167-8.647,3.167c-3.336,0-7.025-1.039-9.157-4.145
	c-1.322-1.964-1.786-4.673-1.842-7.316c-0.055-1.849-0.288-9.164-0.288-12.221v-3.798c0-2.936,0.06-6.969,0.115-7.494
	c0.118-1.26,1.095-2.363,2.765-2.363h2.878c0.404,0,0.462-0.11,0.462-0.399v-1.497c0-0.231-0.058-0.346-0.52-0.346
	c-0.635,0-3.398,0.168-7.891,0.168c-4.491,0-7.316-0.168-7.892-0.168c-0.459,0-0.52,0.116-0.52,0.462v1.271
	c0,0.4,0.061,0.51,0.402,0.51h2.707c1.788,0,2.19,0.924,2.19,2.941v13.718c0,7.547,0.231,11.403,0.922,13.997
	c0.921,3.629,2.938,6.161,6.856,7.72C115.275,323.968,118.155,324.377,121.149,324.377L121.149,324.377z"/>
<path fill-rule="evenodd" fill="#FFFFFF" d="M182.16,321.422h-1.906c-1.439,0-2.936-0.693-3.913-2.59
	c-0.811-1.669-4.553-12.389-5.872-16.88c-1.1-3.691-5.593-16.596-6.688-20.225c-0.176-0.63-0.286-0.977-0.633-0.977
	c-0.287,0-0.46,0.23-0.748,0.515c-0.633,0.808-3.173,2.536-4.782,2.883c-0.405,0.12-0.52,0.346-0.52,0.52
	c0,0.231,0.231,0.52,0.404,0.75c0.405,0.631,0.116,1.377-0.057,1.964c-0.52,1.544-5.186,13.939-5.586,15.094
	c-1.673,4.717-5.88,15.379-6.284,16.293c-0.804,1.849-1.613,2.652-3.337,2.652h-2.017c-0.229,0-0.472,0.12-0.472,0.404v1.382
	c0,0.352,0.125,0.477,0.416,0.477c0.804,0,2.073-0.178,6.277-0.178c3.398,0,5.759,0.178,6.566,0.178
	c0.288,0,0.464-0.125,0.464-0.529v-1.329c0-0.284-0.175-0.404-0.579-0.404h-2.705c-1.269,0-1.956-0.457-1.956-1.266
	c0-0.284,0.113-0.862,0.169-1.271c0.288-1.208,3.46-9.964,4.033-11.403h14.175c0.803,2.301,3.17,9.68,3.624,11.749
	c0.407,1.617-0.108,2.19-1.726,2.19h-1.437c-0.346,0-0.524,0.053-0.524,0.404v1.329c0,0.346,0.178,0.529,0.464,0.529
	c1.324,0,3.34-0.178,8.12-0.178c4.669,0,5.877,0.178,6.914,0.178c0.402,0,0.578-0.125,0.578-0.414v-1.444
	C182.62,321.595,182.502,321.422,182.16,321.422z M153.179,305.408c0.405-1.439,5.879-16.197,6.166-16.933
	c0.173-0.462,0.403-0.862,0.631-0.862c0.178,0,0.289,0.4,0.464,0.799c0.288,0.863,4.952,15.263,5.473,16.996H153.179z"/>
<path fill-rule="evenodd" fill="#FFFFFF" d="M223.058,321.422c-1.612,0-2.936-0.111-4.146-0.982
	c-1.095-0.799-4.777-6.046-5.07-6.624c-0.458-0.745-4.549-6.622-5.242-7.374c-0.462-0.635-1.265-1.674-2.644-2.18v-0.116
	c7.366-1.617,10.656-4.323,10.656-11.527c0-2.137-1.1-4.732-3.001-6.57c-2.187-2.074-5.992-3.514-10.772-3.514
	c-1.04,0-6.395,0.168-9.622,0.168c-4.834,0-6.622-0.168-7.14-0.168c-0.289,0-0.346,0.116-0.346,0.409v1.435
	c0,0.236,0.058,0.399,0.346,0.399h2.306c1.437,0,2.13,0.987,2.188,2.888c0.057,1.67,0.057,5.352,0.057,9.617v5.592
	c0,5.473,0,10.888-0.115,16.587c0,1.554-0.982,1.959-2.246,1.959h-2.363c-0.289,0-0.289,0.173-0.289,0.466v1.319
	c0,0.294,0,0.477,0.462,0.477c0.633,0,1.959-0.178,7.2-0.178c5.473,0,6.91,0.178,7.55,0.178c0.573,0,0.63-0.125,0.63-0.529v-1.267
	c0-0.293-0.057-0.466-0.462-0.466h-3.629c-0.862,0-1.322-1.04-1.437-2.243c-0.057-0.862-0.118-7.315-0.118-10.719v-3.229
	c0.806-0.169,1.382-0.169,1.901-0.169c3.341,0,4.727,1.555,6.221,3.346c0.691,0.798,3.456,4.957,3.685,5.357
	c0.291,0.462,3.403,5.93,3.86,6.618c0.52,0.751,1.79,2.71,2.423,3.302c0.862-0.063,2.993-0.178,4.669-0.178
	c2.531,0,4.029,0.178,4.488,0.178c0.404,0,0.46-0.183,0.46-0.529v-1.267C223.518,321.658,223.463,321.422,223.058,321.422z
	 M198.403,303.223c-1.095,0-1.726-0.052-2.592-0.241v-16.293c0-0.924,0.286-1.56,0.693-1.848c0.516-0.347,1.266-0.462,1.96-0.462
	c4.777,0,7.315,0.867,9.564,2.647c1.67,1.386,2.876,3.918,2.876,6.57C210.903,296.013,208.893,303.223,198.403,303.223z"/>
<path fill-rule="evenodd" fill="#FFFFFF" d="M260.218,287.719c-5.069-4.322-11.29-5.184-18.722-5.184
	c-1.326,0-7.087,0.168-8.582,0.168c-5.189,0-7.718-0.168-8.474-0.168c-0.229,0-0.402,0.063-0.402,0.294v1.55
	c0,0.346,0.173,0.399,0.465,0.399h3.167c1.557,0,2.303,0.236,2.475,1.617c0.117,0.987,0.291,9.164,0.291,10.657v4.322
	c0,4.495-0.234,17.457-0.407,18.665c-0.108,0.924-0.748,1.382-1.839,1.382h-3.861c-0.291,0-0.464,0.12-0.464,0.346v1.501
	c0,0.289,0.118,0.414,0.402,0.414c0.811,0,3.112-0.178,8.122-0.178c2.592,0,6.975,0.178,10.606,0.178c4.436,0,12.38,0,17.913-6.112
	c3.803-4.154,5.701-8.535,5.701-15.157C266.609,295.719,263.961,290.944,260.218,287.719z M256.472,315.607
	c-2.878,3.688-7.662,6.219-13.539,6.219c-2.876,0-5.184-0.63-6.108-1.848c-0.749-1.146-0.977-2.07-0.977-3.215
	c-0.058-3.576-0.113-13.371-0.113-14.118v-4.091c0-0.924,0-8.471,0.055-10.887c0.058-1.271,0.286-2.195,1.098-2.71
	c0.976-0.578,3.337-0.578,4.608-0.578c6.393,0,11.463,2.253,14.459,5.526c2.763,3.061,4.724,8.24,4.724,12.74
	C260.679,307.887,258.891,312.608,256.472,315.607z"/>
<path fill-rule="evenodd" fill="#FFFFFF" d="M309.069,321.422h-1.904c-1.439,0-2.934-0.693-3.916-2.59
	c-0.804-1.669-4.556-12.389-5.872-16.88c-1.098-3.691-5.591-16.596-6.688-20.225c-0.169-0.63-0.289-0.977-0.635-0.977
	c-0.284,0-0.457,0.23-0.746,0.515c-0.633,0.808-3.165,2.536-4.785,2.883c-0.401,0.12-0.515,0.346-0.515,0.52
	c0,0.231,0.229,0.52,0.406,0.75c0.4,0.631,0.108,1.377-0.06,1.964c-0.52,1.544-5.184,13.939-5.588,15.094
	c-1.673,4.717-5.875,15.379-6.277,16.293c-0.811,1.849-1.617,2.652-3.341,2.652h-2.021c-0.231,0-0.472,0.12-0.472,0.404v1.382
	c0,0.352,0.126,0.477,0.414,0.477c0.807,0,2.079-0.178,6.282-0.178c3.396,0,5.761,0.178,6.562,0.178
	c0.292,0,0.465-0.125,0.465-0.529v-1.329c0-0.284-0.174-0.404-0.573-0.404h-2.712c-1.264,0-1.957-0.457-1.957-1.266
	c0-0.284,0.113-0.862,0.168-1.271c0.292-1.208,3.461-9.964,4.034-11.403h14.173c0.809,2.301,3.172,9.68,3.632,11.749
	c0.404,1.617-0.113,2.19-1.73,2.19h-1.439c-0.347,0-0.517,0.053-0.517,0.404v1.329c0,0.346,0.171,0.529,0.46,0.529
	c1.323,0,3.337-0.178,8.119-0.178c4.667,0,5.88,0.178,6.917,0.178c0.4,0,0.578-0.125,0.578-0.414v-1.444
	C309.531,321.595,309.416,321.422,309.069,321.422z M280.089,305.408c0.407-1.439,5.88-16.197,6.166-16.933
	c0.173-0.462,0.406-0.862,0.635-0.862c0.173,0,0.284,0.4,0.462,0.799c0.284,0.863,4.951,15.263,5.468,16.996H280.089z"/>
<path fill-rule="evenodd" fill="#FFFFFF" d="M366.016,313.336c0,3.595-0.274,5.112-1.863,6.084
	c-2.416,1.377-5.805,2.349-11.336,2.349c-4.495,0-8.711-1.598-12.168-4.91c-4.283-4.081-6.57-11.195-6.57-19.358
	c0-6.214,2.358-11.961,6.084-15.904c4.149-4.418,8.432-5.598,13.203-5.598c6.218,0,10.512,3.109,12.581,5.665
	c2.426,2.974,3.6,6.224,4.149,8.164c0.072,0.346,0.275,0.557,0.553,0.557l1.242-0.139c0.279,0,0.346-0.279,0.346-0.625
	l-0.207-13.208c0-0.486-0.139-0.823-0.621-0.823c-0.414,0-0.693,0.337-0.967,0.616l-1.039,1.247
	c-0.409,0.553-0.828,0.693-1.583,0.072c-2.359-1.796-7.677-4.004-13.627-4.004c-8.293,0-14.517,2.348-19.421,6.56
	c-5.112,4.558-7.807,11.272-7.807,17.559c0,8.371,2.137,14.247,6.359,19.012c4.77,5.599,13.203,7.889,19.354,7.889
	c7.74,0,13.271-1.598,18.873-4.438c0.689-0.27,1.107-0.548,1.107-1.102s-0.279-1.247-0.279-2.21v-9.126
	c0-2.142,0.9-2.628,2.147-2.628h2.69c0.414,0,0.487-0.275,0.487-0.553v-1.656c0-0.275-0.073-0.486-0.559-0.486
	c-0.963,0-3.177,0.212-8.148,0.212c-4.703,0-7.812-0.212-8.78-0.212c-0.346,0-0.418,0.139-0.418,0.559v1.723
	c0,0.279,0.14,0.414,0.481,0.414h2.908c2.079,0,2.83,0.693,2.83,3.181V313.336L366.016,313.336z"/>
<path fill-rule="evenodd" fill="#FFFFFF" d="M417.346,286.396c-4.548-3.798-9.28-4.553-12.899-4.553
	c-4.842,0-10.541,1.155-15.619,7.316c-4.433,5.362-5.352,10.83-5.352,14.358c0,8.399,4.375,14.622,8.466,17.102
	c4.549,2.82,9.564,3.759,12.385,3.759c7.951,0,13.082-3.466,16.596-8.139c2.994-4.029,4.317-8.409,4.317-12.616
	C425.24,295.666,421.553,290.03,417.346,286.396z M404.793,322.168c-4.896,0-15.441-5.348-15.441-20.5
	c0-4.732,1.896-10.546,5.752-14.233c4.322-4.091,8.25-3.403,9.107-3.403c6.397,0,15.378,7.436,15.378,20.043
	C419.589,309.206,417.462,322.168,404.793,322.168z"/>
<path fill-rule="evenodd" fill="#FFFFFF" d="M436.068,300.918c0,3.504-0.164,17.852-0.164,18.954c0,0.746-0.346,1.55-2.483,1.55
	h-2.763c-0.347,0-0.405,0.12-0.405,0.404v1.444c0,0.289,0.058,0.414,0.462,0.414c0.404,0,1.098-0.063,2.253-0.125
	c1.203,0,2.879-0.057,5.121-0.057c3.109,0,8.75,0,13.872,0.057c5.131,0,9.627,0.063,10.378,0.125
	c0.346-1.569,2.647-11.076,2.83-11.474c0.048-0.346,0.048-0.409-0.116-0.515l-0.924-0.346c-0.23-0.125-0.346,0-0.461,0.221
	c-0.809,2.247-4.264,9.16-7.663,9.68c-1.79,0.226-13.198,0.115-14.459,0c-0.173-2.363-0.173-14.806-0.173-15.788v-4.948
	c0-4.039,0.173-12.731,0.173-13.487c0-1.67,0.221-2.248,2.022-2.248h3.456c0.452,0,0.568-0.164,0.568-0.457v-1.324
	c0-0.294-0.057-0.462-0.52-0.462c-0.51,0-2.936,0.168-8.52,0.168c-4.784,0-6.863-0.168-7.499-0.168
	c-0.337,0-0.394,0.116-0.394,0.409v1.261c0,0.289,0.057,0.573,0.394,0.573h2.715c1.733,0,2.012,0.578,2.137,2.079
	c0.048,1.03,0.164,7.138,0.164,10.826V300.918L436.068,300.918z"/>
<path fill-rule="evenodd" fill="#FFFFFF" d="M473.216,301.837c0,9.91-0.116,17.164-0.231,18.319
	c-0.058,1.039-0.529,1.266-2.022,1.266h-2.599c-0.221,0-0.395,0.053-0.395,0.289v1.559c0,0.289,0.116,0.414,0.346,0.414
	c0.867,0,3.052-0.178,7.548-0.178c4.948,0,7.249,0.178,7.827,0.178c0.346,0,0.462-0.125,0.462-0.477v-1.439
	c0-0.227-0.163-0.346-0.51-0.346h-2.831c-1.954,0-2.243-0.289-2.243-1.844c0-0.861-0.057-10.542-0.057-12.27v-2.132
	c0.914,0,5.131,0,7.836,0.346c1.271,0.168,1.954,0.862,2.358,2.243c0.173,0.641,0.578,2.363,0.635,2.826
	c0.048,0.293,0.116,0.462,0.395,0.409l1.107-0.232c0.279-0.063,0.394-0.178,0.394-0.462c-0.115-1.155-0.289-3.923-0.289-5.993
	c0-0.799,0-5.593,0.125-6.57c0-0.232-0.125-0.409-0.346-0.409l-1.155-0.053c-0.231,0-0.347,0.168-0.404,0.4
	c-0.174,1.039-0.404,2.252-0.578,2.83c-0.51,1.785-1.271,2.31-2.542,2.532c-0.684,0.125-6.738,0.283-7.538,0.283v-2.874
	c0-3.518,0.057-15.099,0.057-15.84c1.733,0,10.888,0.164,12.322,0.515c1.675,0.405,3.052,1.382,4.043,2.706
	c1.665,2.247,3.157,4.38,3.677,5.299c0.173,0.346,0.289,0.462,0.462,0.409l1.03-0.409c0.125-0.053,0.183-0.168,0.125-0.4
	c-0.404-1.502-2.137-9.28-2.3-10.252c-0.924,0.284-21.15,0.221-22.122,0.221c-2.772,0-4.726-0.052-6.055-0.105
	c-1.319,0-2.012-0.063-2.358-0.063c-0.231,0-0.404,0.116-0.404,0.346v1.555c0,0.232,0.173,0.342,0.404,0.342h3.341
	c1.56,0,2.367,0.578,2.367,1.67c0,0.693,0.116,8.818,0.116,11.35V301.837L473.216,301.837z"/>
</svg>
